<?xml version="1.0" encoding="UTF-8" standalone="no"?>
<!-- Created with Inkscape (http://www.inkscape.org/) -->

<svg
   width="260.79004"
   height="245.24471"
   viewBox="0 0 69.00069 64.887655"
   version="1.1"
   id="svg1"
   inkscape:version="1.3 (0e150ed, 2023-07-21)"
   sodipodi:docname="hw2_26a.svg"
   inkscape:export-filename="hw2_26a.png"
   inkscape:export-xdpi="1024"
   inkscape:export-ydpi="1024"
   xml:space="preserve"
   xmlns:inkscape="http://www.inkscape.org/namespaces/inkscape"
   xmlns:sodipodi="http://sodipodi.sourceforge.net/DTD/sodipodi-0.dtd"
   xmlns="http://www.w3.org/2000/svg"
   xmlns:svg="http://www.w3.org/2000/svg"
   xmlns:ns1="http://www.iki.fi/pav/software/textext/"><sodipodi:namedview
     id="namedview1"
     pagecolor="#282a36"
     bordercolor="#f8f8f2"
     borderopacity="1"
     inkscape:showpageshadow="true"
     inkscape:pageopacity="0"
     inkscape:pagecheckerboard="false"
     inkscape:deskcolor="#44475a"
     inkscape:document-units="px"
     inkscape:zoom="2.8402212"
     inkscape:cx="418.45332"
     inkscape:cy="298.21621"
     inkscape:window-width="1280"
     inkscape:window-height="832"
     inkscape:window-x="715"
     inkscape:window-y="25"
     inkscape:window-maximized="0"
     inkscape:current-layer="layer1"
     showguides="true"
     labelstyle="default"
     shape-rendering="auto"
     showgrid="false"
     showborder="true"
     borderlayer="true"
     inkscape:clip-to-page="false"
     inkscape:export-bgcolor="#00000000" /><defs
     id="defs1"><inkscape:path-effect
       effect="bspline"
       id="path-effect96"
       is_visible="true"
       lpeversion="1.3"
       weight="33.333333"
       steps="2"
       helper_size="0"
       apply_no_weight="true"
       apply_with_weight="true"
       only_selected="false"
       uniform="false" /><inkscape:path-effect
       effect="bspline"
       id="path-effect94"
       is_visible="true"
       lpeversion="1.3"
       weight="33.333333"
       steps="2"
       helper_size="0"
       apply_no_weight="true"
       apply_with_weight="true"
       only_selected="false"
       uniform="false" /><inkscape:path-effect
       effect="bspline"
       id="path-effect92"
       is_visible="true"
       lpeversion="1.3"
       weight="33.333333"
       steps="2"
       helper_size="0"
       apply_no_weight="true"
       apply_with_weight="true"
       only_selected="false"
       uniform="false" /><inkscape:path-effect
       effect="bspline"
       id="path-effect90"
       is_visible="true"
       lpeversion="1.3"
       weight="33.333333"
       steps="2"
       helper_size="0"
       apply_no_weight="true"
       apply_with_weight="true"
       only_selected="false"
       uniform="false" /><inkscape:path-effect
       effect="bspline"
       id="path-effect88"
       is_visible="true"
       lpeversion="1.3"
       weight="33.333333"
       steps="2"
       helper_size="0"
       apply_no_weight="true"
       apply_with_weight="true"
       only_selected="false"
       uniform="false" /><inkscape:path-effect
       effect="bspline"
       id="path-effect86"
       is_visible="true"
       lpeversion="1.3"
       weight="33.333333"
       steps="2"
       helper_size="0"
       apply_no_weight="true"
       apply_with_weight="true"
       only_selected="false"
       uniform="false" /><inkscape:path-effect
       effect="bspline"
       id="path-effect84"
       is_visible="true"
       lpeversion="1.3"
       weight="33.333333"
       steps="2"
       helper_size="0"
       apply_no_weight="true"
       apply_with_weight="true"
       only_selected="false"
       uniform="false" /><inkscape:path-effect
       effect="bspline"
       id="path-effect82"
       is_visible="true"
       lpeversion="1.3"
       weight="33.333333"
       steps="2"
       helper_size="0"
       apply_no_weight="true"
       apply_with_weight="true"
       only_selected="false"
       uniform="false" /><inkscape:path-effect
       effect="bspline"
       id="path-effect80"
       is_visible="true"
       lpeversion="1.3"
       weight="33.333333"
       steps="2"
       helper_size="0"
       apply_no_weight="true"
       apply_with_weight="true"
       only_selected="false"
       uniform="false" /><inkscape:path-effect
       effect="bspline"
       id="path-effect78"
       is_visible="true"
       lpeversion="1.3"
       weight="33.333333"
       steps="2"
       helper_size="0"
       apply_no_weight="true"
       apply_with_weight="true"
       only_selected="false"
       uniform="false" /><inkscape:path-effect
       effect="bspline"
       id="path-effect68"
       is_visible="true"
       lpeversion="1.3"
       weight="33.333333"
       steps="2"
       helper_size="0"
       apply_no_weight="true"
       apply_with_weight="true"
       only_selected="false"
       uniform="false" /><inkscape:path-effect
       effect="bspline"
       id="path-effect66"
       is_visible="true"
       lpeversion="1.3"
       weight="33.333333"
       steps="2"
       helper_size="0"
       apply_no_weight="true"
       apply_with_weight="true"
       only_selected="false"
       uniform="false" /><inkscape:path-effect
       effect="bspline"
       id="path-effect64"
       is_visible="true"
       lpeversion="1.3"
       weight="33.333333"
       steps="2"
       helper_size="0"
       apply_no_weight="true"
       apply_with_weight="true"
       only_selected="false"
       uniform="false" /><inkscape:path-effect
       effect="bspline"
       id="path-effect62"
       is_visible="true"
       lpeversion="1.3"
       weight="33.333333"
       steps="2"
       helper_size="0"
       apply_no_weight="true"
       apply_with_weight="true"
       only_selected="false"
       uniform="false" /><inkscape:path-effect
       effect="bspline"
       id="path-effect60"
       is_visible="true"
       lpeversion="1.3"
       weight="33.333333"
       steps="2"
       helper_size="0"
       apply_no_weight="true"
       apply_with_weight="true"
       only_selected="false"
       uniform="false" /><inkscape:path-effect
       effect="bspline"
       id="path-effect55"
       is_visible="true"
       lpeversion="1.3"
       weight="33.333333"
       steps="2"
       helper_size="0"
       apply_no_weight="true"
       apply_with_weight="true"
       only_selected="false"
       uniform="false" /><inkscape:path-effect
       effect="bspline"
       id="path-effect54"
       is_visible="true"
       lpeversion="1.3"
       weight="33.333333"
       steps="2"
       helper_size="0"
       apply_no_weight="true"
       apply_with_weight="true"
       only_selected="false"
       uniform="false" /><inkscape:path-effect
       effect="bspline"
       id="path-effect53"
       is_visible="true"
       lpeversion="1.3"
       weight="33.333333"
       steps="2"
       helper_size="0"
       apply_no_weight="true"
       apply_with_weight="true"
       only_selected="false"
       uniform="false" /><inkscape:path-effect
       effect="bspline"
       id="path-effect52"
       is_visible="true"
       lpeversion="1.3"
       weight="33.333333"
       steps="2"
       helper_size="0"
       apply_no_weight="true"
       apply_with_weight="true"
       only_selected="false"
       uniform="false" /><inkscape:path-effect
       effect="bspline"
       id="path-effect51"
       is_visible="true"
       lpeversion="1.3"
       weight="33.333333"
       steps="2"
       helper_size="0"
       apply_no_weight="true"
       apply_with_weight="true"
       only_selected="false"
       uniform="false" /><inkscape:path-effect
       effect="bspline"
       id="path-effect50"
       is_visible="true"
       lpeversion="1.3"
       weight="33.333333"
       steps="2"
       helper_size="0"
       apply_no_weight="true"
       apply_with_weight="true"
       only_selected="false"
       uniform="false" /><inkscape:path-effect
       effect="bspline"
       id="path-effect48"
       is_visible="true"
       lpeversion="1.3"
       weight="33.333333"
       steps="2"
       helper_size="0"
       apply_no_weight="true"
       apply_with_weight="true"
       only_selected="false"
       uniform="false" /><inkscape:path-effect
       effect="bspline"
       id="path-effect46"
       is_visible="true"
       lpeversion="1.3"
       weight="33.333333"
       steps="2"
       helper_size="0"
       apply_no_weight="true"
       apply_with_weight="true"
       only_selected="false"
       uniform="false" /><inkscape:path-effect
       effect="bspline"
       id="path-effect44"
       is_visible="true"
       lpeversion="1.3"
       weight="33.333333"
       steps="2"
       helper_size="0"
       apply_no_weight="true"
       apply_with_weight="true"
       only_selected="false"
       uniform="false" /><marker
       style="overflow:visible"
       id="DartArrow"
       refX="0"
       refY="0"
       orient="auto-start-reverse"
       inkscape:stockid="Dart arrow"
       markerWidth="0.75"
       markerHeight="0.75"
       viewBox="0 0 1 1"
       inkscape:isstock="true"
       inkscape:collect="always"
       preserveAspectRatio="xMidYMid"><path
         style="fill:context-stroke;fill-rule:evenodd;stroke:none"
         d="M 0,0 5,-5 -12.5,0 5,5 Z"
         transform="scale(-0.5)"
         id="path6" /></marker><inkscape:path-effect
       effect="bspline"
       id="path-effect35"
       is_visible="true"
       lpeversion="1.3"
       weight="33.333333"
       steps="2"
       helper_size="0"
       apply_no_weight="true"
       apply_with_weight="true"
       only_selected="false"
       uniform="false" /><marker
       style="overflow:visible"
       id="marker3"
       refX="0"
       refY="0"
       orient="auto-start-reverse"
       inkscape:stockid="Dart arrow"
       markerWidth="0.75"
       markerHeight="0.75"
       viewBox="0 0 1 1"
       inkscape:isstock="true"
       inkscape:collect="always"
       preserveAspectRatio="xMidYMid"><path
         style="fill:context-stroke;fill-rule:evenodd;stroke:none"
         d="M 0,0 5,-5 -12.5,0 5,5 Z"
         transform="scale(-0.5)"
         id="path3" /></marker></defs><g
     inkscape:groupmode="layer"
     id="layer2"
     inkscape:label="Layer 2"
     transform="translate(-91.564848,-84.786839)"><g
       transform="matrix(0.35277646,0,0,0.35277646,123.36381,84.786927)"
       ns1:version="1.9.0"
       ns1:texconverter="pdflatex"
       ns1:pdfconverter="inkscape"
       ns1:text="$z$"
       ns1:preamble="/Users/junseo/Library/Application Support/org.inkscape.Inkscape/config/inkscape/extensions/textext/default_packages.tex"
       ns1:scale="1.0"
       ns1:alignment="middle center"
       ns1:stroke-to-path="0"
       ns1:inkscapeversion="1.3"
       id="g4404"
       ns1:jacobian_sqrt="1.33333"
       style="fill:#f8f8f2;stroke-width:0"><defs
   id="id-d77abe37-a8fd-4475-b43c-b9cde2fbeb18"
   style="fill:#f8f8f2;stroke-width:0" />&#10;  <g
   fill-opacity="1"
   id="id-d02c33c4-f40e-459f-b214-90f0f4081c15"
   transform="translate(-149.134,-130.359)"
   style="fill:#f8f8f2;stroke-width:0"
   inkscape:label="id-d02c33c4-f40e-459f-b214-90f0f4081c15">&#10;    <g
   transform="translate(148.712,134.765)"
   id="g4510"
   style="fill:#f8f8f2;stroke-width:0"><path
   d="m 1.328125,-0.828125 c 0.53125,-0.578125 0.828125,-0.828125 1.1875,-1.140625 0,0 0.609375,-0.53125 0.96875,-0.890625 C 4.4375,-3.78125 4.65625,-4.265625 4.65625,-4.3125 c 0,-0.09375 -0.09375,-0.09375 -0.109375,-0.09375 -0.078125,0 -0.09375,0.015625 -0.15625,0.109375 -0.296875,0.484375 -0.5,0.640625 -0.734375,0.640625 -0.25,0 -0.359375,-0.15625 -0.515625,-0.328125 -0.1875,-0.21875 -0.359375,-0.421875 -0.6875,-0.421875 -0.75,0 -1.203125,0.921875 -1.203125,1.140625 0,0.046875 0.03125,0.109375 0.109375,0.109375 0.09375,0 0.109375,-0.046875 0.140625,-0.109375 0.1875,-0.46875 0.765625,-0.46875 0.84375,-0.46875 0.203125,0 0.390625,0.0625 0.625,0.140625 0.40625,0.15625 0.515625,0.15625 0.765625,0.15625 -0.359375,0.421875 -1.1875,1.140625 -1.375,1.296875 l -0.90625,0.84375 C 0.78125,-0.625 0.421875,-0.0625 0.421875,0.015625 c 0,0.09375 0.109375,0.09375 0.125,0.09375 0.078125,0 0.09375,-0.015625 0.15625,-0.125 0.234375,-0.359375 0.53125,-0.625 0.859375,-0.625 0.21875,0 0.328125,0.09375 0.578125,0.375 0.15625,0.21875 0.34375,0.375 0.625,0.375 1,0 1.578125,-1.265625 1.578125,-1.53125 0,-0.046875 -0.046875,-0.109375 -0.125,-0.109375 -0.09375,0 -0.109375,0.0625 -0.140625,0.140625 C 3.84375,-0.75 3.203125,-0.5625 2.875,-0.5625 c -0.1875,0 -0.375,-0.0625 -0.578125,-0.125 -0.34375,-0.125 -0.5,-0.171875 -0.703125,-0.171875 -0.015625,0 -0.171875,0 -0.265625,0.03125 z m 0,0"
   id="id-2317d0a5-f306-4b80-94ef-0862c17211a7"
   style="fill:#f8f8f2;stroke-width:0" />&#10;      </g></g>&#10;</g></g><g
     inkscape:label="Layer 1"
     inkscape:groupmode="layer"
     id="layer1"
     transform="translate(-91.564848,-84.786839)"><path
       style="fill:#f8f8f2;fill-opacity:1;stroke:#f8f8f2;stroke-width:0.378287;stroke-linecap:round;stroke-linejoin:round;stroke-miterlimit:3.5;stroke-dasharray:none;stroke-dashoffset:0;stroke-opacity:1;marker-end:url(#DartArrow);paint-order:fill markers stroke"
       d="m 10.314492,82.856066 c 19.720423,0.07422 39.440845,0.148432 59.161269,0.222648"
       id="xaxis"
       sodipodi:nodetypes="cc"
       transform="matrix(1.1137072,0,0,0.98831273,80.288174,35.829057)"
       inkscape:original-d="m 10.314492,82.856066 c 19.720423,0.07422 39.440845,0.148432 59.161269,0.222648"
       inkscape:path-effect="#path-effect35"
       inkscape:label="xaxis" /><path
       style="fill:#f8f8f2;stroke:#f8f8f2;stroke-width:0.396875;stroke-linecap:round;stroke-dasharray:none;marker-end:url(#marker3);paint-order:fill markers stroke"
       d="m 125.60182,149.22115 -1.3e-4,-62.57396"
       id="yaxis"
       sodipodi:nodetypes="cc"
       inkscape:label="yaxis" /><g
       transform="matrix(0.374263,0,0,0.332526,158.71182,119.48485)"
       ns1:version="1.9.0"
       ns1:texconverter="pdflatex"
       ns1:pdfconverter="inkscape"
       ns1:text="$x$"
       ns1:preamble="/Users/junseo/Library/Application Support/org.inkscape.Inkscape/config/inkscape/extensions/textext/default_packages.tex"
       ns1:scale="1.0"
       ns1:alignment="middle center"
       ns1:stroke-to-path="0"
       ns1:inkscapeversion="1.3"
       id="x"
       ns1:jacobian_sqrt="0.3527778030687305"
       style="fill:#f8f8f2;stroke-width:0"><defs
   id="id-f403d21e-246b-498a-aef5-27e741de8ccc"
   style="fill:#f8f8f2;stroke-width:0" />&#10;  <g
   fill-opacity="1"
   id="id-24d7034b-b791-4e12-8c96-cb9ceaee4c9a"
   transform="translate(-149.009,-130.359)"
   style="fill:#f8f8f2;stroke-width:0">&#10;    <g
   transform="translate(148.712,134.765)"
   id="g4655"
   style="fill:#f8f8f2;stroke-width:0"><path
   d="M 3.328125,-3.015625 C 3.390625,-3.265625 3.625,-4.1875 4.3125,-4.1875 c 0.046875,0 0.296875,0 0.5,0.125 C 4.53125,-4 4.34375,-3.765625 4.34375,-3.515625 c 0,0.15625 0.109375,0.34375 0.375,0.34375 0.21875,0 0.53125,-0.171875 0.53125,-0.578125 0,-0.515625 -0.578125,-0.65625 -0.921875,-0.65625 -0.578125,0 -0.921875,0.53125 -1.046875,0.75 -0.25,-0.65625 -0.78125,-0.75 -1.078125,-0.75 -1.03125,0 -1.609375,1.28125 -1.609375,1.53125 0,0.109375 0.109375,0.109375 0.125,0.109375 0.078125,0 0.109375,-0.03125 0.125,-0.109375 0.34375,-1.0625 1,-1.3125 1.34375,-1.3125 0.1875,0 0.53125,0.09375 0.53125,0.671875 0,0.3125 -0.171875,0.96875 -0.53125,2.375 -0.15625,0.609375 -0.515625,1.03125 -0.953125,1.03125 -0.0625,0 -0.28125,0 -0.5,-0.125 0.25,-0.0625 0.46875,-0.265625 0.46875,-0.546875 0,-0.265625 -0.21875,-0.34375 -0.359375,-0.34375 -0.3125,0 -0.546875,0.25 -0.546875,0.578125 0,0.453125 0.484375,0.65625 0.921875,0.65625 0.671875,0 1.03125,-0.703125 1.046875,-0.75 0.125,0.359375 0.484375,0.75 1.078125,0.75 1.03125,0 1.59375,-1.28125 1.59375,-1.53125 0,-0.109375 -0.078125,-0.109375 -0.109375,-0.109375 -0.09375,0 -0.109375,0.046875 -0.140625,0.109375 -0.328125,1.078125 -1,1.3125 -1.3125,1.3125 -0.390625,0 -0.546875,-0.3125 -0.546875,-0.65625 0,-0.21875 0.046875,-0.4375 0.15625,-0.875 z m 0,0"
   id="id-fcb164f3-010b-422c-bf3d-2ea59d139ecc"
   style="fill:#f8f8f2;stroke-width:0" />&#10;      </g></g>&#10;</g><g
       transform="matrix(0.352778,0,0,0.352778,129.45516,119.42377)"
       ns1:version="1.9.0"
       ns1:texconverter="pdflatex"
       ns1:pdfconverter="inkscape"
       ns1:text="$d/2$"
       ns1:preamble="/Users/junseo/Library/Application Support/org.inkscape.Inkscape/config/inkscape/extensions/textext/default_packages.tex"
       ns1:scale="1.0"
       ns1:alignment="middle center"
       ns1:stroke-to-path="0"
       ns1:inkscapeversion="1.3"
       id="g754"
       ns1:jacobian_sqrt="0.352778"
       style="fill:#bd93f9;stroke-width:0"><defs
   id="id-fc95b264-dcd3-40c9-8587-66d784725cee"
   style="fill:#bd93f9;stroke-width:0" />&#10;  <g
   fill-opacity="1"
   id="id-80034e1c-f1ab-4c2a-b254-b5cfedf739fa"
   transform="translate(-149.118,-127.281)"
   style="fill:#bd93f9;stroke-width:0">&#10;    <g
   transform="translate(148.712,134.765)"
   id="g1398"
   style="fill:#bd93f9;stroke-width:0"><path
   d="m 5.140625,-6.8125 c 0,0 0,-0.109375 -0.125,-0.109375 -0.15625,0 -1.09375,0.09375 -1.265625,0.109375 -0.078125,0.015625 -0.140625,0.0625 -0.140625,0.1875 0,0.125 0.09375,0.125 0.234375,0.125 0.484375,0 0.5,0.0625 0.5,0.171875 L 4.3125,-6.125 3.71875,-3.765625 C 3.53125,-4.140625 3.25,-4.40625 2.796875,-4.40625 c -1.15625,0 -2.390625,1.46875 -2.390625,2.921875 0,0.9375 0.546875,1.59375 1.3125,1.59375 0.203125,0 0.703125,-0.046875 1.296875,-0.75 0.078125,0.421875 0.4375,0.75 0.90625,0.75 0.359375,0 0.578125,-0.234375 0.75,-0.546875 0.15625,-0.359375 0.296875,-0.96875 0.296875,-0.984375 0,-0.109375 -0.09375,-0.109375 -0.125,-0.109375 -0.09375,0 -0.109375,0.046875 -0.140625,0.1875 -0.171875,0.640625 -0.34375,1.234375 -0.75,1.234375 -0.28125,0 -0.296875,-0.265625 -0.296875,-0.453125 0,-0.25 0.015625,-0.3125 0.046875,-0.484375 z m -2.0625,5.625 C 3.015625,-1 3.015625,-0.984375 2.875,-0.8125 2.4375,-0.265625 2.03125,-0.109375 1.75,-0.109375 c -0.5,0 -0.640625,-0.546875 -0.640625,-0.9375 0,-0.5 0.3125,-1.71875 0.546875,-2.1875 0.3125,-0.578125 0.75,-0.953125 1.15625,-0.953125 0.640625,0 0.78125,0.8125 0.78125,0.875 0,0.0625 -0.015625,0.125 -0.03125,0.171875 z m 0,0"
   id="id-05da7f6a-8c25-47fc-9ece-fa3e9abd514f"
   style="fill:#bd93f9;stroke-width:0" />&#10;      </g><g
   transform="translate(153.898,134.765)"
   id="g8462"
   style="fill:#bd93f9;stroke-width:0"><path
   d="m 4.375,-7.09375 c 0.046875,-0.140625 0.046875,-0.171875 0.046875,-0.1875 0,-0.109375 -0.078125,-0.203125 -0.1875,-0.203125 -0.078125,0 -0.140625,0.03125 -0.171875,0.09375 l -3.46875,9.5 C 0.546875,2.25 0.546875,2.28125 0.546875,2.296875 0.546875,2.40625 0.640625,2.5 0.75,2.5 0.875,2.5 0.90625,2.421875 0.96875,2.25 Z m 0,0"
   id="id-a0752ca9-dea1-461e-bd7c-5786826ddbac"
   style="fill:#bd93f9;stroke-width:0" />&#10;      </g></g>&#10;  <g
   fill-opacity="1"
   id="id-392628d7-5e12-4385-b7f3-f8d75e2fa07b"
   transform="translate(-149.118,-127.281)"
   style="fill:#bd93f9;stroke-width:0">&#10;    <g
   transform="translate(158.879,134.765)"
   id="g3548"
   style="fill:#bd93f9;stroke-width:0"><path
   d="m 1.265625,-0.765625 1.0625,-1.03125 c 1.546875,-1.375 2.140625,-1.90625 2.140625,-2.90625 0,-1.140625 -0.890625,-1.9375 -2.109375,-1.9375 -1.125,0 -1.859375,0.921875 -1.859375,1.8125 0,0.546875 0.5,0.546875 0.53125,0.546875 0.171875,0 0.515625,-0.109375 0.515625,-0.53125 0,-0.25 -0.1875,-0.515625 -0.53125,-0.515625 -0.078125,0 -0.09375,0 -0.125,0.015625 0.21875,-0.65625 0.765625,-1.015625 1.34375,-1.015625 0.90625,0 1.328125,0.8125 1.328125,1.625 C 3.5625,-3.90625 3.078125,-3.125 2.515625,-2.5 l -1.90625,2.125 C 0.5,-0.265625 0.5,-0.234375 0.5,0 H 4.203125 L 4.46875,-1.734375 H 4.234375 C 4.171875,-1.4375 4.109375,-1 4,-0.84375 3.9375,-0.765625 3.28125,-0.765625 3.0625,-0.765625 Z m 0,0"
   id="id-6c03bf86-d7f5-44ca-aed8-20d6b9d8a456"
   style="fill:#bd93f9;stroke-width:0" />&#10;      </g></g>&#10;</g><g
       transform="matrix(0.352778,0,0,0.352778,116.97227,119.42377)"
       ns1:version="1.9.0"
       ns1:texconverter="pdflatex"
       ns1:pdfconverter="inkscape"
       ns1:text="$d/2$"
       ns1:preamble="/Users/junseo/Library/Application Support/org.inkscape.Inkscape/config/inkscape/extensions/textext/default_packages.tex"
       ns1:scale="1.0"
       ns1:alignment="middle center"
       ns1:stroke-to-path="0"
       ns1:inkscapeversion="1.3"
       id="g44"
       ns1:jacobian_sqrt="0.352778"
       style="fill:#bd93f9;stroke-width:0"><defs
   id="defs38"
   style="fill:#bd93f9;stroke-width:0" />&#10;  <g
   fill-opacity="1"
   id="g41"
   transform="translate(-149.118,-127.281)"
   style="fill:#bd93f9;stroke-width:0">&#10;    <g
   transform="translate(148.712,134.765)"
   id="g39"
   style="fill:#bd93f9;stroke-width:0"><path
   d="m 5.140625,-6.8125 c 0,0 0,-0.109375 -0.125,-0.109375 -0.15625,0 -1.09375,0.09375 -1.265625,0.109375 -0.078125,0.015625 -0.140625,0.0625 -0.140625,0.1875 0,0.125 0.09375,0.125 0.234375,0.125 0.484375,0 0.5,0.0625 0.5,0.171875 L 4.3125,-6.125 3.71875,-3.765625 C 3.53125,-4.140625 3.25,-4.40625 2.796875,-4.40625 c -1.15625,0 -2.390625,1.46875 -2.390625,2.921875 0,0.9375 0.546875,1.59375 1.3125,1.59375 0.203125,0 0.703125,-0.046875 1.296875,-0.75 0.078125,0.421875 0.4375,0.75 0.90625,0.75 0.359375,0 0.578125,-0.234375 0.75,-0.546875 0.15625,-0.359375 0.296875,-0.96875 0.296875,-0.984375 0,-0.109375 -0.09375,-0.109375 -0.125,-0.109375 -0.09375,0 -0.109375,0.046875 -0.140625,0.1875 -0.171875,0.640625 -0.34375,1.234375 -0.75,1.234375 -0.28125,0 -0.296875,-0.265625 -0.296875,-0.453125 0,-0.25 0.015625,-0.3125 0.046875,-0.484375 z m -2.0625,5.625 C 3.015625,-1 3.015625,-0.984375 2.875,-0.8125 2.4375,-0.265625 2.03125,-0.109375 1.75,-0.109375 c -0.5,0 -0.640625,-0.546875 -0.640625,-0.9375 0,-0.5 0.3125,-1.71875 0.546875,-2.1875 0.3125,-0.578125 0.75,-0.953125 1.15625,-0.953125 0.640625,0 0.78125,0.8125 0.78125,0.875 0,0.0625 -0.015625,0.125 -0.03125,0.171875 z m 0,0"
   id="path38"
   style="fill:#bd93f9;stroke-width:0" />&#10;      </g><g
   transform="translate(153.898,134.765)"
   id="g40"
   style="fill:#bd93f9;stroke-width:0"><path
   d="m 4.375,-7.09375 c 0.046875,-0.140625 0.046875,-0.171875 0.046875,-0.1875 0,-0.109375 -0.078125,-0.203125 -0.1875,-0.203125 -0.078125,0 -0.140625,0.03125 -0.171875,0.09375 l -3.46875,9.5 C 0.546875,2.25 0.546875,2.28125 0.546875,2.296875 0.546875,2.40625 0.640625,2.5 0.75,2.5 0.875,2.5 0.90625,2.421875 0.96875,2.25 Z m 0,0"
   id="path39"
   style="fill:#bd93f9;stroke-width:0" />&#10;      </g></g>&#10;  <g
   fill-opacity="1"
   id="g43"
   transform="translate(-149.118,-127.281)"
   style="fill:#bd93f9;stroke-width:0">&#10;    <g
   transform="translate(158.879,134.765)"
   id="g42"
   style="fill:#bd93f9;stroke-width:0"><path
   d="m 1.265625,-0.765625 1.0625,-1.03125 c 1.546875,-1.375 2.140625,-1.90625 2.140625,-2.90625 0,-1.140625 -0.890625,-1.9375 -2.109375,-1.9375 -1.125,0 -1.859375,0.921875 -1.859375,1.8125 0,0.546875 0.5,0.546875 0.53125,0.546875 0.171875,0 0.515625,-0.109375 0.515625,-0.53125 0,-0.25 -0.1875,-0.515625 -0.53125,-0.515625 -0.078125,0 -0.09375,0 -0.125,0.015625 0.21875,-0.65625 0.765625,-1.015625 1.34375,-1.015625 0.90625,0 1.328125,0.8125 1.328125,1.625 C 3.5625,-3.90625 3.078125,-3.125 2.515625,-2.5 l -1.90625,2.125 C 0.5,-0.265625 0.5,-0.234375 0.5,0 H 4.203125 L 4.46875,-1.734375 H 4.234375 C 4.171875,-1.4375 4.109375,-1 4,-0.84375 3.9375,-0.765625 3.28125,-0.765625 3.0625,-0.765625 Z m 0,0"
   id="path41"
   style="fill:#bd93f9;stroke-width:0" />&#10;      </g></g>&#10;</g><path
       style="fill:#8be9fd;stroke:#8be9fd;stroke-width:0.396875;stroke-linecap:round;stroke-linejoin:round;stroke-dasharray:none;stroke-dashoffset:0;marker-mid:url(#DartArrow);marker-end:url(#DartArrow)"
       d="m 111.01295,117.78101 c 4.28145,0.0141 8.56292,0.0281 12.84439,0.0422"
       id="path44"
       inkscape:path-effect="#path-effect44"
       inkscape:original-d="m 111.01295,117.78101 c 4.28145,0.0141 8.56292,0.0282 12.84439,0.0422"
       sodipodi:nodetypes="cc" /><path
       style="fill:#8be9fd;stroke:#8be9fd;stroke-width:0.396875;stroke-linecap:round;stroke-linejoin:round;stroke-dasharray:none;stroke-dashoffset:0;marker-mid:url(#DartArrow);marker-end:url(#DartArrow)"
       d="m 111.02204,117.81899 c 4.21368,-0.0141 8.42737,-0.0282 12.64107,-0.0423"
       id="path45"
       inkscape:path-effect="#path-effect46"
       inkscape:original-d="m 111.02204,117.81899 c 4.21368,-0.0141 8.42737,-0.0282 12.64107,-0.0423"
       sodipodi:nodetypes="cc"
       transform="matrix(-1,0,0,1,251.02565,0.05883772)" /><path
       style="fill:#8be9fd;stroke:#8be9fd;stroke-width:0.396875;stroke-linecap:round;stroke-linejoin:round;stroke-dasharray:none;stroke-dashoffset:0;marker-mid:url(#DartArrow);marker-end:url(#DartArrow)"
       d="m 111.45634,117.81327 c 4.13376,0.0144 8.26753,0.0289 12.4013,0.0433"
       id="path46"
       inkscape:path-effect="#path-effect48"
       inkscape:original-d="m 111.45634,117.81327 c 4.13376,0.0144 8.26753,0.0288 12.4013,0.0433"
       sodipodi:nodetypes="cc"
       transform="translate(30.320684,0.07048209)" /><path
       style="fill:#8be9fd;stroke:#8be9fd;stroke-width:0.396875;stroke-linecap:round;stroke-linejoin:round;stroke-dasharray:none;stroke-dashoffset:0;marker-mid:url(#DartArrow);marker-end:url(#DartArrow)"
       d="m 111.33657,117.81794 c 4.10884,-0.0137 8.21768,-0.0275 12.32654,-0.0412"
       id="path48"
       inkscape:path-effect="#path-effect50"
       inkscape:original-d="m 111.33657,117.81794 c 4.10884,-0.0137 8.21768,-0.0274 12.32654,-0.0412"
       sodipodi:nodetypes="cc"
       transform="matrix(-1,0,0,1,220.78234,-0.04216519)" /><path
       style="fill:none;stroke:#8be9fd;stroke-width:0.396875;stroke-linecap:round;stroke-linejoin:round;stroke-dasharray:none;stroke-dashoffset:0;marker-mid:url(#DartArrow);marker-end:url(#DartArrow)"
       d="m 110.81451,117.2749 c 3.2592,-1.97621 6.51841,-3.95243 8.60996,-8.6319 2.09156,-4.67947 3.01542,-12.061888 3.9393,-19.444458"
       id="path50"
       inkscape:path-effect="#path-effect51"
       inkscape:original-d="m 110.81451,117.2749 c 3.2592,-1.97621 6.51841,-3.95243 9.77762,-5.92865 0.9239,-7.38272 1.84776,-14.765138 2.77164,-22.147708"
       sodipodi:nodetypes="ccc" /><path
       style="fill:none;stroke:#8be9fd;stroke-width:0.396875;stroke-linecap:round;stroke-linejoin:round;stroke-dasharray:none;stroke-dashoffset:0;marker-mid:url(#DartArrow);marker-end:url(#DartArrow)"
       d="m 110.52897,117.07664 c 1.58368,-3.32109 3.16735,-6.64218 4.11646,-10.14761 0.94911,-3.50544 1.26364,-7.195079 1.11241,-10.488572 -0.15122,-3.293494 -0.76818,-6.190652 -1.38515,-9.087869"
       id="path51"
       inkscape:path-effect="#path-effect52"
       inkscape:original-d="m 110.52897,117.07664 c 1.58368,-3.32109 3.16735,-6.64218 4.75103,-9.96327 0.31454,-3.68978 0.62907,-7.379419 0.9436,-11.069134 -0.61698,-2.897272 -1.23394,-5.79443 -1.85091,-8.691647"
       sodipodi:nodetypes="cccc" /><path
       style="fill:none;stroke:#8be9fd;stroke-width:0.396875;stroke-linecap:round;stroke-linejoin:round;stroke-dasharray:none;stroke-dashoffset:0;marker-mid:url(#DartArrow);marker-end:url(#DartArrow)"
       d="m 110.2244,116.82338 c 0.0913,-2.85034 0.18251,-5.70068 -0.12006,-8.36462 -0.30258,-2.66394 -0.99896,-5.14139 -2.11535,-8.628061 -1.11639,-3.486673 -2.65273,-7.982348 -4.18909,-12.47811"
       id="path52"
       inkscape:path-effect="#path-effect53"
       inkscape:original-d="m 110.2244,116.82338 c 0.0913,-2.85034 0.18251,-5.70068 0.27377,-8.55101 -0.69641,-2.47755 -1.39278,-4.955 -2.08918,-7.4325 -1.53639,-4.495845 -3.07273,-8.991518 -4.60909,-13.487281" /><path
       style="fill:none;stroke:#8be9fd;stroke-width:0.396875;stroke-linecap:round;stroke-linejoin:round;stroke-dasharray:none;stroke-dashoffset:0;marker-mid:url(#DartArrow);marker-end:url(#DartArrow)"
       d="m 109.83975,117.07646 c -0.69827,-1.66173 -1.39653,-3.32345 -2.29298,-5.02248 -0.89644,-1.69904 -1.99102,-3.43532 -3.50623,-5.60126 -1.5152,-2.16595 -3.45094,-4.76142 -4.98466,-6.862341 -1.533721,-2.100921 -2.665343,-3.707171 -3.796988,-5.313454"
       id="path53"
       inkscape:path-effect="#path-effect54"
       inkscape:original-d="m 109.83975,117.07646 c -0.69826,-1.66173 -1.39653,-3.32345 -2.0948,-4.98517 -1.09462,-1.73635 -2.1892,-3.47263 -3.2838,-5.20894 -1.93581,-2.59558 -3.87155,-5.19105 -5.807324,-7.786577 -1.131668,-1.606314 -2.26329,-3.212565 -3.394934,-4.818848" /><path
       style="fill:none;stroke:#8be9fd;stroke-width:0.396875;stroke-linecap:round;stroke-linejoin:round;stroke-dasharray:none;stroke-dashoffset:0;marker-mid:url(#DartArrow)"
       d="m 109.64421,117.43176 c -1.62839,-1.05915 -3.25679,-2.1183 -5.30402,-3.12246 -2.04724,-1.00417 -4.513219,-1.9533 -6.158726,-2.50772 -1.645507,-0.55441 -2.470458,-0.71408 -3.295426,-0.87375"
       id="path54"
       inkscape:path-effect="#path-effect55"
       inkscape:original-d="m 109.64421,117.43176 c -1.62839,-1.05915 -3.25679,-2.1183 -4.88518,-3.17745 -2.46608,-0.94917 -4.93206,-1.89831 -7.39809,-2.84747 -0.824984,-0.15967 -1.649934,-0.31934 -2.474902,-0.47901" /><path
       style="fill:none;stroke:#8be9fd;stroke-width:0.396875;stroke-linecap:round;stroke-linejoin:round;stroke-dasharray:none;stroke-dashoffset:0;marker-mid:url(#DartArrow);marker-end:url(#DartArrow)"
       d="m 111.09559,117.07351 c 3.16551,-1.90908 6.33102,-3.81817 8.37573,-8.46407 2.04471,-4.64591 2.96857,-12.028328 3.89245,-19.410898"
       id="path55"
       inkscape:path-effect="#path-effect60"
       inkscape:original-d="m 111.09559,117.07351 c 3.16551,-1.90908 6.33102,-3.81817 9.49654,-5.72726 0.9239,-7.38272 1.84776,-14.765138 2.77164,-22.147708"
       sodipodi:nodetypes="ccc"
       transform="matrix(1,0,0,-1,-0.19844,235.20753)" /><path
       style="fill:none;stroke:#8be9fd;stroke-width:0.396875;stroke-linecap:round;stroke-linejoin:round;stroke-dasharray:none;stroke-dashoffset:0;marker-mid:url(#DartArrow);marker-end:url(#DartArrow)"
       d="m 110.6966,116.84284 c 1.5278,-3.24316 3.0556,-6.48631 3.97677,-9.95278 0.92117,-3.46647 1.2357,-7.156109 1.08447,-10.449602 -0.15122,-3.293494 -0.76818,-6.190652 -1.38515,-9.087869"
       id="path56"
       inkscape:path-effect="#path-effect62"
       inkscape:original-d="m 110.6966,116.84284 c 1.5278,-3.24316 3.0556,-6.48631 4.5834,-9.72947 0.31454,-3.68978 0.62907,-7.379419 0.9436,-11.069134 -0.61698,-2.897272 -1.23394,-5.79443 -1.85091,-8.691647"
       transform="matrix(1,0,0,-1,-0.19844,235.20753)" /><path
       style="fill:none;stroke:#8be9fd;stroke-width:0.396875;stroke-linecap:round;stroke-linejoin:round;stroke-dasharray:none;stroke-dashoffset:0;marker-mid:url(#DartArrow);marker-end:url(#DartArrow)"
       d="m 110.2244,116.82338 c 0.0913,-2.85034 0.18251,-5.70068 -0.12006,-8.36462 -0.30258,-2.66394 -0.99896,-5.14139 -2.11535,-8.628061 -1.11639,-3.486673 -2.65273,-7.982348 -4.18909,-12.47811"
       id="path57"
       inkscape:path-effect="#path-effect64"
       inkscape:original-d="m 110.2244,116.82338 c 0.0913,-2.85034 0.18251,-5.70068 0.27377,-8.55101 -0.69641,-2.47755 -1.39278,-4.955 -2.08918,-7.4325 -1.53639,-4.495845 -3.07273,-8.991518 -4.60909,-13.487281"
       transform="matrix(1,0,0,-1,-0.19844,235.20753)" /><path
       style="fill:none;stroke:#8be9fd;stroke-width:0.396875;stroke-linecap:round;stroke-linejoin:round;stroke-dasharray:none;stroke-dashoffset:0;marker-mid:url(#DartArrow);marker-end:url(#DartArrow)"
       d="m 109.83975,117.07646 c -0.69827,-1.66173 -1.39653,-3.32345 -2.29298,-5.02248 -0.89644,-1.69904 -1.99102,-3.43532 -3.50623,-5.60126 -1.5152,-2.16595 -3.45094,-4.76142 -4.98466,-6.862341 -1.533721,-2.100921 -2.665343,-3.707171 -3.796988,-5.313454"
       id="path58"
       inkscape:path-effect="#path-effect66"
       inkscape:original-d="m 109.83975,117.07646 c -0.69826,-1.66173 -1.39653,-3.32345 -2.0948,-4.98517 -1.09462,-1.73635 -2.1892,-3.47263 -3.2838,-5.20894 -1.93581,-2.59558 -3.87155,-5.19105 -5.807324,-7.786577 -1.131668,-1.606314 -2.26329,-3.212565 -3.394934,-4.818848"
       transform="matrix(1,0,0,-1,-0.19844,235.20753)" /><path
       style="fill:none;stroke:#8be9fd;stroke-width:0.396875;stroke-linecap:round;stroke-linejoin:round;stroke-dasharray:none;stroke-dashoffset:0;marker-mid:url(#DartArrow)"
       d="m 109.64421,117.43176 c -1.62839,-1.05915 -3.25679,-2.1183 -5.30402,-3.12246 -2.04724,-1.00417 -4.513219,-1.9533 -6.158726,-2.50772 -1.645507,-0.55441 -2.470458,-0.71408 -3.295426,-0.87375"
       id="path59"
       inkscape:path-effect="#path-effect68"
       inkscape:original-d="m 109.64421,117.43176 c -1.62839,-1.05915 -3.25679,-2.1183 -4.88518,-3.17745 -2.46608,-0.94917 -4.93206,-1.89831 -7.39809,-2.84747 -0.824984,-0.15967 -1.649934,-0.31934 -2.474902,-0.47901"
       transform="matrix(1,0,0,-1,-0.19844,235.20753)" /><path
       style="fill:none;stroke:#8be9fd;stroke-width:0.396875;stroke-linecap:round;stroke-linejoin:round;stroke-dasharray:none;stroke-dashoffset:0;marker-mid:url(#DartArrow);marker-end:url(#DartArrow)"
       d="m 110.92771,117.2749 c 3.22146,-1.97621 6.44294,-3.95243 8.51563,-8.6319 2.07269,-4.67947 2.99655,-12.061888 3.92043,-19.444458"
       id="path68"
       inkscape:path-effect="#path-effect78"
       inkscape:original-d="m 110.92771,117.2749 c 3.22146,-1.97621 6.44294,-3.95243 9.66442,-5.92865 0.9239,-7.38272 1.84776,-14.765138 2.77164,-22.147708"
       sodipodi:nodetypes="ccc"
       transform="matrix(-1,0,0,1,251.20338,-0.01984754)" /><path
       style="fill:none;stroke:#8be9fd;stroke-width:0.396875;stroke-linecap:round;stroke-linejoin:round;stroke-dasharray:none;stroke-dashoffset:0;marker-mid:url(#DartArrow);marker-end:url(#DartArrow)"
       d="m 110.52496,117.11375 c 1.58501,-3.33346 3.17003,-6.66692 4.1198,-10.17854 0.94978,-3.51162 1.26431,-7.201259 1.11308,-10.494752 -0.15122,-3.293494 -0.76818,-6.190652 -1.38515,-9.087869"
       id="path69"
       inkscape:path-effect="#path-effect80"
       inkscape:original-d="m 110.52496,117.11375 c 1.58502,-3.33346 3.17003,-6.66692 4.75504,-10.00038 0.31454,-3.68978 0.62907,-7.379419 0.9436,-11.069134 -0.61698,-2.897272 -1.23394,-5.79443 -1.85091,-8.691647"
       transform="matrix(-1,0,0,1,251.20338,-0.01984754)"
       sodipodi:nodetypes="cccc" /><path
       style="fill:none;stroke:#8be9fd;stroke-width:0.396875;stroke-linecap:round;stroke-linejoin:round;stroke-dasharray:none;stroke-dashoffset:0;marker-mid:url(#DartArrow);marker-end:url(#DartArrow)"
       d="m 110.2244,116.82338 c 0.0913,-2.85034 0.18251,-5.70068 -0.12006,-8.36462 -0.30258,-2.66394 -0.99896,-5.14139 -2.11535,-8.628061 -1.11639,-3.486673 -2.65273,-7.982348 -4.18909,-12.47811"
       id="path70"
       inkscape:path-effect="#path-effect82"
       inkscape:original-d="m 110.2244,116.82338 c 0.0913,-2.85034 0.18251,-5.70068 0.27377,-8.55101 -0.69641,-2.47755 -1.39278,-4.955 -2.08918,-7.4325 -1.53639,-4.495845 -3.07273,-8.991518 -4.60909,-13.487281"
       transform="matrix(-1,0,0,1,251.20338,-0.01984754)" /><path
       style="fill:none;stroke:#8be9fd;stroke-width:0.396875;stroke-linecap:round;stroke-linejoin:round;stroke-dasharray:none;stroke-dashoffset:0;marker-mid:url(#DartArrow);marker-end:url(#DartArrow)"
       d="m 109.83975,117.07646 c -0.69827,-1.66173 -1.39653,-3.32345 -2.29298,-5.02248 -0.89644,-1.69904 -1.99102,-3.43532 -3.50623,-5.60126 -1.5152,-2.16595 -3.45094,-4.76142 -4.98466,-6.862341 -1.533721,-2.100921 -2.665343,-3.707171 -3.796988,-5.313454"
       id="path71"
       inkscape:path-effect="#path-effect84"
       inkscape:original-d="m 109.83975,117.07646 c -0.69826,-1.66173 -1.39653,-3.32345 -2.0948,-4.98517 -1.09462,-1.73635 -2.1892,-3.47263 -3.2838,-5.20894 -1.93581,-2.59558 -3.87155,-5.19105 -5.807324,-7.786577 -1.131668,-1.606314 -2.26329,-3.212565 -3.394934,-4.818848"
       transform="matrix(-1,0,0,1,251.20338,-0.01984754)" /><path
       style="fill:none;stroke:#8be9fd;stroke-width:0.396875;stroke-linecap:round;stroke-linejoin:round;stroke-dasharray:none;stroke-dashoffset:0;marker-mid:url(#DartArrow)"
       d="m 109.64421,117.43176 c -1.62839,-1.05915 -3.25679,-2.1183 -5.30402,-3.12246 -2.04724,-1.00417 -4.513219,-1.9533 -6.158726,-2.50772 -1.645507,-0.55441 -2.470458,-0.71408 -3.295426,-0.87375"
       id="path72"
       inkscape:path-effect="#path-effect86"
       inkscape:original-d="m 109.64421,117.43176 c -1.62839,-1.05915 -3.25679,-2.1183 -4.88518,-3.17745 -2.46608,-0.94917 -4.93206,-1.89831 -7.39809,-2.84747 -0.824984,-0.15967 -1.649934,-0.31934 -2.474902,-0.47901"
       transform="matrix(-1,0,0,1,251.20338,-0.01984754)" /><path
       style="fill:none;stroke:#8be9fd;stroke-width:0.396875;stroke-linecap:round;stroke-linejoin:round;stroke-dasharray:none;stroke-dashoffset:0;marker-mid:url(#DartArrow);marker-end:url(#DartArrow)"
       d="m 111.09559,117.07351 c 3.16551,-1.90908 6.33102,-3.81817 8.37573,-8.46407 2.04471,-4.64591 2.96857,-12.028328 3.89245,-19.410898"
       id="path73"
       inkscape:path-effect="#path-effect88"
       inkscape:original-d="m 111.09559,117.07351 c 3.16551,-1.90908 6.33102,-3.81817 9.49654,-5.72726 0.9239,-7.38272 1.84776,-14.765138 2.77164,-22.147708"
       sodipodi:nodetypes="ccc"
       transform="rotate(180,125.70091,117.59385)" /><path
       style="fill:none;stroke:#8be9fd;stroke-width:0.396875;stroke-linecap:round;stroke-linejoin:round;stroke-dasharray:none;stroke-dashoffset:0;marker-mid:url(#DartArrow);marker-end:url(#DartArrow)"
       d="m 110.6966,116.84284 c 1.5278,-3.24316 3.0556,-6.48631 3.97677,-9.95278 0.92117,-3.46647 1.2357,-7.156109 1.08447,-10.449602 -0.15122,-3.293494 -0.76818,-6.190652 -1.38515,-9.087869"
       id="path74"
       inkscape:path-effect="#path-effect90"
       inkscape:original-d="m 110.6966,116.84284 c 1.5278,-3.24316 3.0556,-6.48631 4.5834,-9.72947 0.31454,-3.68978 0.62907,-7.379419 0.9436,-11.069134 -0.61698,-2.897272 -1.23394,-5.79443 -1.85091,-8.691647"
       transform="rotate(180,125.70091,117.59385)" /><path
       style="fill:none;stroke:#8be9fd;stroke-width:0.396875;stroke-linecap:round;stroke-linejoin:round;stroke-dasharray:none;stroke-dashoffset:0;marker-mid:url(#DartArrow);marker-end:url(#DartArrow)"
       d="m 110.2244,116.82338 c 0.0913,-2.85034 0.18251,-5.70068 -0.12006,-8.36462 -0.30258,-2.66394 -0.99896,-5.14139 -2.11535,-8.628061 -1.11639,-3.486673 -2.65273,-7.982348 -4.18909,-12.47811"
       id="path75"
       inkscape:path-effect="#path-effect92"
       inkscape:original-d="m 110.2244,116.82338 c 0.0913,-2.85034 0.18251,-5.70068 0.27377,-8.55101 -0.69641,-2.47755 -1.39278,-4.955 -2.08918,-7.4325 -1.53639,-4.495845 -3.07273,-8.991518 -4.60909,-13.487281"
       transform="rotate(180,125.70091,117.59385)" /><path
       style="fill:none;stroke:#8be9fd;stroke-width:0.396875;stroke-linecap:round;stroke-linejoin:round;stroke-dasharray:none;stroke-dashoffset:0;marker-mid:url(#DartArrow);marker-end:url(#DartArrow)"
       d="m 109.83975,117.07646 c -0.69827,-1.66173 -1.39653,-3.32345 -2.29298,-5.02248 -0.89644,-1.69904 -1.99102,-3.43532 -3.50623,-5.60126 -1.5152,-2.16595 -3.45094,-4.76142 -4.98466,-6.862341 -1.533721,-2.100921 -2.665343,-3.707171 -3.796988,-5.313454"
       id="path76"
       inkscape:path-effect="#path-effect94"
       inkscape:original-d="m 109.83975,117.07646 c -0.69826,-1.66173 -1.39653,-3.32345 -2.0948,-4.98517 -1.09462,-1.73635 -2.1892,-3.47263 -3.2838,-5.20894 -1.93581,-2.59558 -3.87155,-5.19105 -5.807324,-7.786577 -1.131668,-1.606314 -2.26329,-3.212565 -3.394934,-4.818848"
       transform="rotate(180,125.70091,117.59385)" /><path
       style="fill:none;stroke:#8be9fd;stroke-width:0.396875;stroke-linecap:round;stroke-linejoin:round;stroke-dasharray:none;stroke-dashoffset:0;marker-mid:url(#DartArrow)"
       d="m 109.64421,117.43176 c -1.62839,-1.05915 -3.25679,-2.1183 -5.30402,-3.12246 -2.04724,-1.00417 -4.513219,-1.9533 -6.158726,-2.50772 -1.645507,-0.55441 -2.470458,-0.71408 -3.295426,-0.87375"
       id="path77"
       inkscape:path-effect="#path-effect96"
       inkscape:original-d="m 109.64421,117.43176 c -1.62839,-1.05915 -3.25679,-2.1183 -4.88518,-3.17745 -2.46608,-0.94917 -4.93206,-1.89831 -7.39809,-2.84747 -0.824984,-0.15967 -1.649934,-0.31934 -2.474902,-0.47901"
       transform="rotate(180,125.70091,117.59385)" /></g><circle
     style="fill:#bd93f9;stroke:none;stroke-width:0.396875;stroke-linecap:round;stroke-linejoin:round;stroke-dasharray:none"
     id="path25"
     cx="49.41449"
     cy="33.097538"
     r="0.97576874" /><circle
     style="fill:#bd93f9;stroke:none;stroke-width:0.396875;stroke-linecap:round;stroke-linejoin:round;stroke-dasharray:none"
     id="circle25"
     cx="18.473343"
     cy="32.950222"
     r="0.97576874" /></svg>
