<?xml version="1.0" encoding="UTF-8" standalone="no"?>
<!-- Created with Inkscape (http://www.inkscape.org/) -->

<svg
   width="261.83786"
   height="254.59277"
   viewBox="0 0 69.277926 67.360998"
   version="1.1"
   id="svg1"
   inkscape:version="1.3 (0e150ed, 2023-07-21)"
   sodipodi:docname="hw2_26b.svg"
   inkscape:export-filename="hw2_26b.png"
   inkscape:export-xdpi="1024"
   inkscape:export-ydpi="1024"
   xml:space="preserve"
   xmlns:inkscape="http://www.inkscape.org/namespaces/inkscape"
   xmlns:sodipodi="http://sodipodi.sourceforge.net/DTD/sodipodi-0.dtd"
   xmlns="http://www.w3.org/2000/svg"
   xmlns:svg="http://www.w3.org/2000/svg"
   xmlns:ns1="http://www.iki.fi/pav/software/textext/"><sodipodi:namedview
     id="namedview1"
     pagecolor="#282a36"
     bordercolor="#f8f8f2"
     borderopacity="1"
     inkscape:showpageshadow="true"
     inkscape:pageopacity="0"
     inkscape:pagecheckerboard="false"
     inkscape:deskcolor="#44475a"
     inkscape:document-units="px"
     inkscape:zoom="1.1830909"
     inkscape:cx="250.61472"
     inkscape:cy="233.28723"
     inkscape:window-width="1280"
     inkscape:window-height="832"
     inkscape:window-x="715"
     inkscape:window-y="25"
     inkscape:window-maximized="0"
     inkscape:current-layer="layer1"
     showguides="true"
     labelstyle="default"
     shape-rendering="auto"
     showgrid="false"
     showborder="true"
     borderlayer="true"
     inkscape:clip-to-page="false"
     inkscape:export-bgcolor="#00000000" /><defs
     id="defs1"><inkscape:path-effect
       effect="bspline"
       id="path-effect152"
       is_visible="true"
       lpeversion="1.3"
       weight="33.333333"
       steps="2"
       helper_size="0"
       apply_no_weight="true"
       apply_with_weight="true"
       only_selected="false"
       uniform="false" /><inkscape:path-effect
       effect="bspline"
       id="path-effect150"
       is_visible="true"
       lpeversion="1.3"
       weight="33.333333"
       steps="2"
       helper_size="0"
       apply_no_weight="true"
       apply_with_weight="true"
       only_selected="false"
       uniform="false" /><inkscape:path-effect
       effect="bspline"
       id="path-effect149"
       is_visible="true"
       lpeversion="1.3"
       weight="33.333333"
       steps="2"
       helper_size="0"
       apply_no_weight="true"
       apply_with_weight="true"
       only_selected="false"
       uniform="false" /><inkscape:path-effect
       effect="bspline"
       id="path-effect147"
       is_visible="true"
       lpeversion="1.3"
       weight="33.333333"
       steps="2"
       helper_size="0"
       apply_no_weight="true"
       apply_with_weight="true"
       only_selected="false"
       uniform="false" /><inkscape:path-effect
       effect="bspline"
       id="path-effect145"
       is_visible="true"
       lpeversion="1.3"
       weight="33.333333"
       steps="2"
       helper_size="0"
       apply_no_weight="true"
       apply_with_weight="true"
       only_selected="false"
       uniform="false" /><inkscape:path-effect
       effect="bspline"
       id="path-effect143"
       is_visible="true"
       lpeversion="1.3"
       weight="33.333333"
       steps="2"
       helper_size="0"
       apply_no_weight="true"
       apply_with_weight="true"
       only_selected="false"
       uniform="false" /><inkscape:path-effect
       effect="bspline"
       id="path-effect139"
       is_visible="true"
       lpeversion="1.3"
       weight="33.333333"
       steps="2"
       helper_size="0"
       apply_no_weight="true"
       apply_with_weight="true"
       only_selected="false"
       uniform="false" /><inkscape:path-effect
       effect="bspline"
       id="path-effect137"
       is_visible="true"
       lpeversion="1.3"
       weight="33.333333"
       steps="2"
       helper_size="0"
       apply_no_weight="true"
       apply_with_weight="true"
       only_selected="false"
       uniform="false" /><inkscape:path-effect
       effect="bspline"
       id="path-effect135"
       is_visible="true"
       lpeversion="1.3"
       weight="33.333333"
       steps="2"
       helper_size="0"
       apply_no_weight="true"
       apply_with_weight="true"
       only_selected="false"
       uniform="false" /><inkscape:path-effect
       effect="bspline"
       id="path-effect133"
       is_visible="true"
       lpeversion="1.3"
       weight="33.333333"
       steps="2"
       helper_size="0"
       apply_no_weight="true"
       apply_with_weight="true"
       only_selected="false"
       uniform="false" /><inkscape:path-effect
       effect="bspline"
       id="path-effect131"
       is_visible="true"
       lpeversion="1.3"
       weight="33.333333"
       steps="2"
       helper_size="0"
       apply_no_weight="true"
       apply_with_weight="true"
       only_selected="false"
       uniform="false" /><inkscape:path-effect
       effect="bspline"
       id="path-effect129"
       is_visible="true"
       lpeversion="1.3"
       weight="33.333333"
       steps="2"
       helper_size="0"
       apply_no_weight="true"
       apply_with_weight="true"
       only_selected="false"
       uniform="false" /><inkscape:path-effect
       effect="bspline"
       id="path-effect127"
       is_visible="true"
       lpeversion="1.3"
       weight="33.333333"
       steps="2"
       helper_size="0"
       apply_no_weight="true"
       apply_with_weight="true"
       only_selected="false"
       uniform="false" /><inkscape:path-effect
       effect="bspline"
       id="path-effect125"
       is_visible="true"
       lpeversion="1.3"
       weight="33.333333"
       steps="2"
       helper_size="0"
       apply_no_weight="true"
       apply_with_weight="true"
       only_selected="false"
       uniform="false" /><inkscape:path-effect
       effect="bspline"
       id="path-effect112"
       is_visible="true"
       lpeversion="1.3"
       weight="33.333333"
       steps="2"
       helper_size="0"
       apply_no_weight="true"
       apply_with_weight="true"
       only_selected="false"
       uniform="false" /><inkscape:path-effect
       effect="bspline"
       id="path-effect110"
       is_visible="true"
       lpeversion="1.3"
       weight="33.333333"
       steps="2"
       helper_size="0"
       apply_no_weight="true"
       apply_with_weight="true"
       only_selected="false"
       uniform="false" /><inkscape:path-effect
       effect="bspline"
       id="path-effect108"
       is_visible="true"
       lpeversion="1.3"
       weight="33.333333"
       steps="2"
       helper_size="0"
       apply_no_weight="true"
       apply_with_weight="true"
       only_selected="false"
       uniform="false" /><inkscape:path-effect
       effect="bspline"
       id="path-effect106"
       is_visible="true"
       lpeversion="1.3"
       weight="33.333333"
       steps="2"
       helper_size="0"
       apply_no_weight="true"
       apply_with_weight="true"
       only_selected="false"
       uniform="false" /><inkscape:path-effect
       effect="bspline"
       id="path-effect102"
       is_visible="true"
       lpeversion="1.3"
       weight="33.333333"
       steps="2"
       helper_size="0"
       apply_no_weight="true"
       apply_with_weight="true"
       only_selected="false"
       uniform="false" /><inkscape:path-effect
       effect="bspline"
       id="path-effect100"
       is_visible="true"
       lpeversion="1.3"
       weight="33.333333"
       steps="2"
       helper_size="0"
       apply_no_weight="true"
       apply_with_weight="true"
       only_selected="false"
       uniform="false" /><inkscape:path-effect
       effect="bspline"
       id="path-effect99"
       is_visible="true"
       lpeversion="1.3"
       weight="33.333333"
       steps="2"
       helper_size="0"
       apply_no_weight="true"
       apply_with_weight="true"
       only_selected="false"
       uniform="false" /><inkscape:path-effect
       effect="bspline"
       id="path-effect98"
       is_visible="true"
       lpeversion="1.3"
       weight="33.333333"
       steps="2"
       helper_size="0"
       apply_no_weight="true"
       apply_with_weight="true"
       only_selected="false"
       uniform="false" /><inkscape:path-effect
       effect="bspline"
       id="path-effect97"
       is_visible="true"
       lpeversion="1.3"
       weight="33.333333"
       steps="2"
       helper_size="0"
       apply_no_weight="true"
       apply_with_weight="true"
       only_selected="false"
       uniform="false" /><inkscape:path-effect
       effect="bspline"
       id="path-effect68"
       is_visible="true"
       lpeversion="1.3"
       weight="33.333333"
       steps="2"
       helper_size="0"
       apply_no_weight="true"
       apply_with_weight="true"
       only_selected="false"
       uniform="false" /><inkscape:path-effect
       effect="bspline"
       id="path-effect66"
       is_visible="true"
       lpeversion="1.3"
       weight="33.333333"
       steps="2"
       helper_size="0"
       apply_no_weight="true"
       apply_with_weight="true"
       only_selected="false"
       uniform="false" /><inkscape:path-effect
       effect="bspline"
       id="path-effect64"
       is_visible="true"
       lpeversion="1.3"
       weight="33.333333"
       steps="2"
       helper_size="0"
       apply_no_weight="true"
       apply_with_weight="true"
       only_selected="false"
       uniform="false" /><inkscape:path-effect
       effect="bspline"
       id="path-effect55"
       is_visible="true"
       lpeversion="1.3"
       weight="33.333333"
       steps="2"
       helper_size="0"
       apply_no_weight="true"
       apply_with_weight="true"
       only_selected="false"
       uniform="false" /><inkscape:path-effect
       effect="bspline"
       id="path-effect54"
       is_visible="true"
       lpeversion="1.3"
       weight="33.333333"
       steps="2"
       helper_size="0"
       apply_no_weight="true"
       apply_with_weight="true"
       only_selected="false"
       uniform="false" /><inkscape:path-effect
       effect="bspline"
       id="path-effect50"
       is_visible="true"
       lpeversion="1.3"
       weight="33.333333"
       steps="2"
       helper_size="0"
       apply_no_weight="true"
       apply_with_weight="true"
       only_selected="false"
       uniform="false" /><inkscape:path-effect
       effect="bspline"
       id="path-effect48"
       is_visible="true"
       lpeversion="1.3"
       weight="33.333333"
       steps="2"
       helper_size="0"
       apply_no_weight="true"
       apply_with_weight="true"
       only_selected="false"
       uniform="false" /><marker
       style="overflow:visible"
       id="DartArrow"
       refX="0"
       refY="0"
       orient="auto-start-reverse"
       inkscape:stockid="Dart arrow"
       markerWidth="0.75"
       markerHeight="0.75"
       viewBox="0 0 1 1"
       inkscape:isstock="true"
       inkscape:collect="always"
       preserveAspectRatio="xMidYMid"><path
         style="fill:context-stroke;fill-rule:evenodd;stroke:none"
         d="M 0,0 5,-5 -12.5,0 5,5 Z"
         transform="scale(-0.5)"
         id="path6" /></marker><inkscape:path-effect
       effect="bspline"
       id="path-effect35"
       is_visible="true"
       lpeversion="1.3"
       weight="33.333333"
       steps="2"
       helper_size="0"
       apply_no_weight="true"
       apply_with_weight="true"
       only_selected="false"
       uniform="false" /><marker
       style="overflow:visible"
       id="marker3"
       refX="0"
       refY="0"
       orient="auto-start-reverse"
       inkscape:stockid="Dart arrow"
       markerWidth="0.75"
       markerHeight="0.75"
       viewBox="0 0 1 1"
       inkscape:isstock="true"
       inkscape:collect="always"
       preserveAspectRatio="xMidYMid"><path
         style="fill:context-stroke;fill-rule:evenodd;stroke:none"
         d="M 0,0 5,-5 -12.5,0 5,5 Z"
         transform="scale(-0.5)"
         id="path3" /></marker></defs><g
     inkscape:groupmode="layer"
     id="layer2"
     inkscape:label="Layer 2"
     transform="translate(-91.287611,-84.10661)"><g
       transform="matrix(0.35277646,0,0,0.35277646,123.36381,84.786927)"
       ns1:version="1.9.0"
       ns1:texconverter="pdflatex"
       ns1:pdfconverter="inkscape"
       ns1:text="$z$"
       ns1:preamble="/Users/junseo/Library/Application Support/org.inkscape.Inkscape/config/inkscape/extensions/textext/default_packages.tex"
       ns1:scale="1.0"
       ns1:alignment="middle center"
       ns1:stroke-to-path="0"
       ns1:inkscapeversion="1.3"
       id="g4404"
       ns1:jacobian_sqrt="1.33333"
       style="fill:#f8f8f2;stroke-width:0"><defs
   id="id-d77abe37-a8fd-4475-b43c-b9cde2fbeb18"
   style="fill:#f8f8f2;stroke-width:0" />&#10;  <g
   fill-opacity="1"
   id="id-d02c33c4-f40e-459f-b214-90f0f4081c15"
   transform="translate(-149.134,-130.359)"
   style="fill:#f8f8f2;stroke-width:0"
   inkscape:label="id-d02c33c4-f40e-459f-b214-90f0f4081c15">&#10;    <g
   transform="translate(148.712,134.765)"
   id="g4510"
   style="fill:#f8f8f2;stroke-width:0"><path
   d="m 1.328125,-0.828125 c 0.53125,-0.578125 0.828125,-0.828125 1.1875,-1.140625 0,0 0.609375,-0.53125 0.96875,-0.890625 C 4.4375,-3.78125 4.65625,-4.265625 4.65625,-4.3125 c 0,-0.09375 -0.09375,-0.09375 -0.109375,-0.09375 -0.078125,0 -0.09375,0.015625 -0.15625,0.109375 -0.296875,0.484375 -0.5,0.640625 -0.734375,0.640625 -0.25,0 -0.359375,-0.15625 -0.515625,-0.328125 -0.1875,-0.21875 -0.359375,-0.421875 -0.6875,-0.421875 -0.75,0 -1.203125,0.921875 -1.203125,1.140625 0,0.046875 0.03125,0.109375 0.109375,0.109375 0.09375,0 0.109375,-0.046875 0.140625,-0.109375 0.1875,-0.46875 0.765625,-0.46875 0.84375,-0.46875 0.203125,0 0.390625,0.0625 0.625,0.140625 0.40625,0.15625 0.515625,0.15625 0.765625,0.15625 -0.359375,0.421875 -1.1875,1.140625 -1.375,1.296875 l -0.90625,0.84375 C 0.78125,-0.625 0.421875,-0.0625 0.421875,0.015625 c 0,0.09375 0.109375,0.09375 0.125,0.09375 0.078125,0 0.09375,-0.015625 0.15625,-0.125 0.234375,-0.359375 0.53125,-0.625 0.859375,-0.625 0.21875,0 0.328125,0.09375 0.578125,0.375 0.15625,0.21875 0.34375,0.375 0.625,0.375 1,0 1.578125,-1.265625 1.578125,-1.53125 0,-0.046875 -0.046875,-0.109375 -0.125,-0.109375 -0.09375,0 -0.109375,0.0625 -0.140625,0.140625 C 3.84375,-0.75 3.203125,-0.5625 2.875,-0.5625 c -0.1875,0 -0.375,-0.0625 -0.578125,-0.125 -0.34375,-0.125 -0.5,-0.171875 -0.703125,-0.171875 -0.015625,0 -0.171875,0 -0.265625,0.03125 z m 0,0"
   id="id-2317d0a5-f306-4b80-94ef-0862c17211a7"
   style="fill:#f8f8f2;stroke-width:0" />&#10;      </g></g>&#10;</g></g><g
     inkscape:label="Layer 1"
     inkscape:groupmode="layer"
     id="layer1"
     transform="translate(-91.287611,-84.10661)"><path
       style="fill:#f8f8f2;fill-opacity:1;stroke:#f8f8f2;stroke-width:0.378287;stroke-linecap:round;stroke-linejoin:round;stroke-miterlimit:3.5;stroke-dasharray:none;stroke-dashoffset:0;stroke-opacity:1;marker-end:url(#DartArrow);paint-order:fill markers stroke"
       d="m 10.314492,82.856066 c 19.720423,0.07422 39.440845,0.148432 59.161269,0.222648"
       id="xaxis"
       sodipodi:nodetypes="cc"
       transform="matrix(1.1137072,0,0,0.98831273,80.288174,35.829057)"
       inkscape:original-d="m 10.314492,82.856066 c 19.720423,0.07422 39.440845,0.148432 59.161269,0.222648"
       inkscape:path-effect="#path-effect35"
       inkscape:label="xaxis" /><path
       style="fill:#f8f8f2;stroke:#f8f8f2;stroke-width:0.396875;stroke-linecap:round;stroke-dasharray:none;marker-end:url(#marker3);paint-order:fill markers stroke"
       d="m 125.60182,149.22115 -1.3e-4,-62.57396"
       id="yaxis"
       sodipodi:nodetypes="cc"
       inkscape:label="yaxis" /><g
       transform="matrix(0.374263,0,0,0.332526,158.71182,119.48485)"
       ns1:version="1.9.0"
       ns1:texconverter="pdflatex"
       ns1:pdfconverter="inkscape"
       ns1:text="$x$"
       ns1:preamble="/Users/junseo/Library/Application Support/org.inkscape.Inkscape/config/inkscape/extensions/textext/default_packages.tex"
       ns1:scale="1.0"
       ns1:alignment="middle center"
       ns1:stroke-to-path="0"
       ns1:inkscapeversion="1.3"
       id="x"
       ns1:jacobian_sqrt="0.3527778030687305"
       style="fill:#f8f8f2;stroke-width:0"><defs
   id="id-f403d21e-246b-498a-aef5-27e741de8ccc"
   style="fill:#f8f8f2;stroke-width:0" />&#10;  <g
   fill-opacity="1"
   id="id-24d7034b-b791-4e12-8c96-cb9ceaee4c9a"
   transform="translate(-149.009,-130.359)"
   style="fill:#f8f8f2;stroke-width:0">&#10;    <g
   transform="translate(148.712,134.765)"
   id="g4655"
   style="fill:#f8f8f2;stroke-width:0"><path
   d="M 3.328125,-3.015625 C 3.390625,-3.265625 3.625,-4.1875 4.3125,-4.1875 c 0.046875,0 0.296875,0 0.5,0.125 C 4.53125,-4 4.34375,-3.765625 4.34375,-3.515625 c 0,0.15625 0.109375,0.34375 0.375,0.34375 0.21875,0 0.53125,-0.171875 0.53125,-0.578125 0,-0.515625 -0.578125,-0.65625 -0.921875,-0.65625 -0.578125,0 -0.921875,0.53125 -1.046875,0.75 -0.25,-0.65625 -0.78125,-0.75 -1.078125,-0.75 -1.03125,0 -1.609375,1.28125 -1.609375,1.53125 0,0.109375 0.109375,0.109375 0.125,0.109375 0.078125,0 0.109375,-0.03125 0.125,-0.109375 0.34375,-1.0625 1,-1.3125 1.34375,-1.3125 0.1875,0 0.53125,0.09375 0.53125,0.671875 0,0.3125 -0.171875,0.96875 -0.53125,2.375 -0.15625,0.609375 -0.515625,1.03125 -0.953125,1.03125 -0.0625,0 -0.28125,0 -0.5,-0.125 0.25,-0.0625 0.46875,-0.265625 0.46875,-0.546875 0,-0.265625 -0.21875,-0.34375 -0.359375,-0.34375 -0.3125,0 -0.546875,0.25 -0.546875,0.578125 0,0.453125 0.484375,0.65625 0.921875,0.65625 0.671875,0 1.03125,-0.703125 1.046875,-0.75 0.125,0.359375 0.484375,0.75 1.078125,0.75 1.03125,0 1.59375,-1.28125 1.59375,-1.53125 0,-0.109375 -0.078125,-0.109375 -0.109375,-0.109375 -0.09375,0 -0.109375,0.046875 -0.140625,0.109375 -0.328125,1.078125 -1,1.3125 -1.3125,1.3125 -0.390625,0 -0.546875,-0.3125 -0.546875,-0.65625 0,-0.21875 0.046875,-0.4375 0.15625,-0.875 z m 0,0"
   id="id-fcb164f3-010b-422c-bf3d-2ea59d139ecc"
   style="fill:#f8f8f2;stroke-width:0" />&#10;      </g></g>&#10;</g><path
       style="fill:#8be9fd;stroke:#8be9fd;stroke-width:0.396875;stroke-linecap:round;stroke-linejoin:round;stroke-dasharray:none;stroke-dashoffset:0;marker-mid:url(#DartArrow);marker-end:url(#DartArrow)"
       d="m 111.45634,117.81327 c 4.64278,0.01 9.28557,0.0193 13.92837,0.029"
       id="path46"
       inkscape:path-effect="#path-effect48"
       inkscape:original-d="m 111.45634,117.81327 c 4.64278,0.01 9.28557,0.0194 13.92837,0.029"
       sodipodi:nodetypes="cc"
       transform="translate(30.320684,0.07048209)" /><path
       style="fill:#8be9fd;stroke:#8be9fd;stroke-width:0.396875;stroke-linecap:round;stroke-linejoin:round;stroke-dasharray:none;stroke-dashoffset:0;marker-mid:url(#DartArrow);marker-end:url(#DartArrow)"
       d="m 111.33657,117.81794 c 5.2477,-0.0175 10.49541,-0.0351 15.74314,-0.0526"
       id="path48"
       inkscape:path-effect="#path-effect50"
       inkscape:original-d="m 111.33657,117.81794 c 5.2477,-0.0175 10.49541,-0.035 15.74314,-0.0526"
       sodipodi:nodetypes="cc"
       transform="matrix(-1,0,0,1,220.78234,-0.04216519)" /><path
       style="fill:none;stroke:#8be9fd;stroke-width:0.396875;stroke-linecap:round;stroke-linejoin:round;stroke-dasharray:none;stroke-dashoffset:0;marker-mid:url(#DartArrow);marker-end:url(#DartArrow)"
       d="m 109.83975,117.07646 c -0.69827,-1.66173 -1.39653,-3.32345 -2.29298,-5.02248 -0.89644,-1.69904 -1.99102,-3.43532 -3.50623,-5.60126 -1.5152,-2.16595 -3.45094,-4.76142 -4.98466,-6.862341 -1.533721,-2.100921 -2.665343,-3.707171 -3.796988,-5.313454"
       id="path53"
       inkscape:path-effect="#path-effect54"
       inkscape:original-d="m 109.83975,117.07646 c -0.69826,-1.66173 -1.39653,-3.32345 -2.0948,-4.98517 -1.09462,-1.73635 -2.1892,-3.47263 -3.2838,-5.20894 -1.93581,-2.59558 -3.87155,-5.19105 -5.807324,-7.786577 -1.131668,-1.606314 -2.26329,-3.212565 -3.394934,-4.818848" /><path
       style="fill:none;stroke:#8be9fd;stroke-width:0.396875;stroke-linecap:round;stroke-linejoin:round;stroke-dasharray:none;stroke-dashoffset:0;marker-mid:url(#DartArrow)"
       d="m 109.64421,117.43176 c -1.62839,-1.05915 -3.25679,-2.1183 -5.30402,-3.12246 -2.04724,-1.00417 -4.513219,-1.9533 -6.158726,-2.50772 -1.645507,-0.55441 -2.470458,-0.71408 -3.295426,-0.87375"
       id="path54"
       inkscape:path-effect="#path-effect55"
       inkscape:original-d="m 109.64421,117.43176 c -1.62839,-1.05915 -3.25679,-2.1183 -4.88518,-3.17745 -2.46608,-0.94917 -4.93206,-1.89831 -7.39809,-2.84747 -0.824984,-0.15967 -1.649934,-0.31934 -2.474902,-0.47901" /><path
       style="fill:none;stroke:#8be9fd;stroke-width:0.396875;stroke-linecap:round;stroke-linejoin:round;stroke-dasharray:none;stroke-dashoffset:0;marker-mid:url(#DartArrow);marker-end:url(#DartArrow)"
       d="m 110.2244,116.82338 c -0.12725,-2.85034 -0.2545,-5.70062 -0.55707,-8.36459 -0.30258,-2.66397 -0.78045,-5.14142 -1.78759,-8.628092 -1.00714,-3.486672 -2.54348,-7.982347 -4.07984,-12.478109"
       id="path57"
       inkscape:path-effect="#path-effect64"
       inkscape:original-d="m 110.2244,116.82338 c -0.12725,-2.85034 -0.2545,-5.70062 -0.38175,-8.55101 -0.4779,-2.47755 -0.95577,-4.955 -1.43366,-7.4325 -1.53639,-4.495845 -3.07273,-8.991518 -4.60909,-13.487281"
       transform="matrix(1,0,0,-1,-0.19844,235.20753)"
       sodipodi:nodetypes="cccc" /><path
       style="fill:none;stroke:#8be9fd;stroke-width:0.396875;stroke-linecap:round;stroke-linejoin:round;stroke-dasharray:none;stroke-dashoffset:0;marker-mid:url(#DartArrow);marker-end:url(#DartArrow)"
       d="m 109.83975,117.07646 c -0.69827,-1.66173 -1.39653,-3.32345 -2.29298,-5.02248 -0.89644,-1.69904 -1.99102,-3.43532 -3.50623,-5.60126 -1.5152,-2.16595 -3.45094,-4.76142 -4.98466,-6.862341 -1.533721,-2.100921 -2.665343,-3.707171 -3.796988,-5.313454"
       id="path58"
       inkscape:path-effect="#path-effect66"
       inkscape:original-d="m 109.83975,117.07646 c -0.69826,-1.66173 -1.39653,-3.32345 -2.0948,-4.98517 -1.09462,-1.73635 -2.1892,-3.47263 -3.2838,-5.20894 -1.93581,-2.59558 -3.87155,-5.19105 -5.807324,-7.786577 -1.131668,-1.606314 -2.26329,-3.212565 -3.394934,-4.818848"
       transform="matrix(1,0,0,-1,-0.19844,235.20753)" /><path
       style="fill:none;stroke:#8be9fd;stroke-width:0.396875;stroke-linecap:round;stroke-linejoin:round;stroke-dasharray:none;stroke-dashoffset:0;marker-mid:url(#DartArrow);marker-end:url(#DartArrow)"
       d="m 109.64421,117.43176 c -1.56141,-1.23647 -3.12279,-2.47292 -4.96909,-3.84551 -1.84629,-1.3726 -3.97732,-2.8812 -5.940239,-4.03914 -1.962917,-1.15794 -3.757537,-1.96511 -5.552191,-2.77229"
       id="path59"
       inkscape:path-effect="#path-effect68"
       inkscape:original-d="m 109.64421,117.43176 c -1.56141,-1.23647 -3.12279,-2.47292 -4.68423,-3.70942 -2.13115,-1.50869 -4.26218,-3.01729 -6.393327,-4.52597 -1.794689,-0.8072 -3.589307,-1.61437 -5.383963,-2.42155"
       transform="matrix(1,0,0,-1,-0.19844,235.20753)"
       sodipodi:nodetypes="cccc" /><path
       style="fill:none;stroke:#8be9fd;stroke-width:0.396875;stroke-linecap:round;stroke-linejoin:round;stroke-dasharray:none;stroke-dashoffset:0;marker-mid:url(#DartArrow);marker-end:url(#DartArrow)"
       d="m 113.34529,118.18571 c 0.0274,4.00211 0.0548,8.00422 -0.0342,11.47776 -0.089,3.47355 -0.29445,6.41841 -0.60261,9.65566 -0.30815,3.23726 -0.71901,6.7667 -1.12988,10.29621"
       id="path97"
       inkscape:path-effect="#path-effect98"
       inkscape:original-d="m 113.34529,118.18571 c 0.0274,4.00211 0.0548,8.00422 0.0822,12.00633 -0.20544,2.94498 -0.41087,5.88984 -0.61631,8.83477 -0.41087,3.52958 -0.82173,7.05902 -1.2326,10.58853" /><path
       style="fill:none;stroke:#8be9fd;stroke-width:0.396875;stroke-linecap:round;stroke-linejoin:round;stroke-dasharray:none;stroke-dashoffset:0;marker-mid:url(#DartArrow);marker-end:url(#DartArrow)"
       d="m 117.55999,117.98727 c -0.0223,3.73949 -0.0447,7.47898 -0.12282,11.55639 -0.0781,4.0774 -0.21211,8.49254 -0.39074,11.89417 -0.17863,3.40162 -0.40191,5.78954 -0.62519,8.17751"
       id="path98"
       inkscape:path-effect="#path-effect99"
       inkscape:original-d="m 117.55999,117.98727 c -0.0223,3.73949 -0.0447,7.47898 -0.067,11.21847 -0.13397,4.41532 -0.26793,8.83046 -0.4019,13.2457 -0.22329,2.38801 -0.44656,4.77593 -0.66985,7.1639"
       sodipodi:nodetypes="cccc" /><path
       style="fill:none;stroke:#8be9fd;stroke-width:0.396875;stroke-linecap:round;stroke-linejoin:round;stroke-dasharray:none;stroke-dashoffset:0;marker-mid:url(#DartArrow);marker-end:url(#DartArrow)"
       d="m 122.04792,118.18571 c 0,4.23154 0,8.46309 -0.0223,12.28699 -0.0223,3.82389 -0.067,7.24001 -0.17863,10.32992 -0.11164,3.0899 -0.29026,5.85341 -0.46888,8.61697"
       id="path99"
       inkscape:path-effect="#path-effect100"
       inkscape:original-d="m 122.04792,118.18571 c 0,4.23154 0,8.46309 0,12.69463 -0.0447,3.41625 -0.0893,6.83237 -0.13397,10.24856 -0.17863,2.76362 -0.35725,5.52713 -0.53587,8.29069" /><path
       style="fill:#8be9fd;stroke:#8be9fd;stroke-width:0.396875;stroke-linecap:round;stroke-linejoin:round;stroke-dasharray:none;stroke-dashoffset:0;marker-mid:url(#DartArrow);marker-end:url(#DartArrow)"
       d="m 111.33657,117.81794 c 5.2477,-0.0175 10.49541,-0.0351 15.74314,-0.0526"
       id="path100"
       inkscape:path-effect="#path-effect102"
       inkscape:original-d="m 111.33657,117.81794 c 5.2477,-0.0175 10.49541,-0.035 15.74314,-0.0526"
       sodipodi:nodetypes="cc"
       transform="matrix(-1,0,0,1,220.78234,-0.04216519)" /><path
       style="fill:none;stroke:#8be9fd;stroke-width:0.396875;stroke-linecap:round;stroke-linejoin:round;stroke-dasharray:none;stroke-dashoffset:0;marker-mid:url(#DartArrow);marker-end:url(#DartArrow)"
       d="m 110.2244,116.82338 c -0.12725,-2.85034 -0.2545,-5.70062 -0.55707,-8.36459 -0.30258,-2.66397 -0.78045,-5.14142 -1.78759,-8.628092 -1.00714,-3.486672 -2.54348,-7.982347 -4.07984,-12.478109"
       id="path102"
       inkscape:path-effect="#path-effect106"
       inkscape:original-d="m 110.2244,116.82338 c -0.12725,-2.85034 -0.2545,-5.70062 -0.38175,-8.55101 -0.4779,-2.47755 -0.95577,-4.955 -1.43366,-7.4325 -1.53639,-4.495845 -3.07273,-8.991518 -4.60909,-13.487281"
       transform="translate(-0.19844,0.37014241)"
       sodipodi:nodetypes="cccc" /><path
       style="fill:none;stroke:#8be9fd;stroke-width:0.396875;stroke-linecap:round;stroke-linejoin:round;stroke-dasharray:none;stroke-dashoffset:0;marker-mid:url(#DartArrow);marker-end:url(#DartArrow)"
       d="m 113.34529,118.18571 c 0.0274,4.00211 0.0548,8.00422 -0.0342,11.47776 -0.089,3.47355 -0.29445,6.41841 -0.60261,9.65566 -0.30815,3.23726 -0.71901,6.7667 -1.12988,10.29621"
       id="path103"
       inkscape:path-effect="#path-effect108"
       inkscape:original-d="m 113.34529,118.18571 c 0.0274,4.00211 0.0548,8.00422 0.0822,12.00633 -0.20544,2.94498 -0.41087,5.88984 -0.61631,8.83477 -0.41087,3.52958 -0.82173,7.05902 -1.2326,10.58853"
       transform="matrix(1,0,0,-1,0,235.57767)" /><path
       style="fill:none;stroke:#8be9fd;stroke-width:0.396875;stroke-linecap:round;stroke-linejoin:round;stroke-dasharray:none;stroke-dashoffset:0;marker-mid:url(#DartArrow);marker-end:url(#DartArrow)"
       d="m 117.55999,117.98727 c -0.0223,3.73949 -0.0447,7.47898 -0.12282,11.55639 -0.0781,4.0774 -0.21211,8.49254 -0.39074,11.89417 -0.17863,3.40162 -0.40191,5.78954 -0.62519,8.17751"
       id="path104"
       inkscape:path-effect="#path-effect110"
       inkscape:original-d="m 117.55999,117.98727 c -0.0223,3.73949 -0.0447,7.47898 -0.067,11.21847 -0.13397,4.41532 -0.26793,8.83046 -0.4019,13.2457 -0.22329,2.38801 -0.44656,4.77593 -0.66985,7.1639"
       sodipodi:nodetypes="cccc"
       transform="matrix(1,0,0,-1,0,235.57767)" /><path
       style="fill:none;stroke:#8be9fd;stroke-width:0.396875;stroke-linecap:round;stroke-linejoin:round;stroke-dasharray:none;stroke-dashoffset:0;marker-mid:url(#DartArrow);marker-end:url(#DartArrow)"
       d="m 122.04792,118.18571 c 0,4.23154 0,8.46309 -0.0223,12.28699 -0.0223,3.82389 -0.067,7.24001 -0.17863,10.32992 -0.11164,3.0899 -0.29026,5.85341 -0.46888,8.61697"
       id="path105"
       inkscape:path-effect="#path-effect112"
       inkscape:original-d="m 122.04792,118.18571 c 0,4.23154 0,8.46309 0,12.69463 -0.0447,3.41625 -0.0893,6.83237 -0.13397,10.24856 -0.17863,2.76362 -0.35725,5.52713 -0.53587,8.29069"
       transform="matrix(1,0,0,-1,0,235.57767)" /><path
       style="fill:none;stroke:#8be9fd;stroke-width:0.396875;stroke-linecap:round;stroke-linejoin:round;stroke-dasharray:none;stroke-dashoffset:0;marker-mid:url(#DartArrow);marker-end:url(#DartArrow)"
       d="m 109.83975,117.07646 c -0.69827,-1.66173 -1.39653,-3.32345 -2.29298,-5.02248 -0.89644,-1.69904 -1.99102,-3.43532 -3.50623,-5.60126 -1.5152,-2.16595 -3.45094,-4.76142 -4.98466,-6.862341 -1.533721,-2.100921 -2.665343,-3.707171 -3.796988,-5.313454"
       id="path112"
       inkscape:path-effect="#path-effect125"
       inkscape:original-d="m 109.83975,117.07646 c -0.69826,-1.66173 -1.39653,-3.32345 -2.0948,-4.98517 -1.09462,-1.73635 -2.1892,-3.47263 -3.2838,-5.20894 -1.93581,-2.59558 -3.87155,-5.19105 -5.807324,-7.786577 -1.131668,-1.606314 -2.26329,-3.212565 -3.394934,-4.818848"
       transform="matrix(-1,0,0,1,251.20338,-0.00345782)" /><path
       style="fill:none;stroke:#8be9fd;stroke-width:0.396875;stroke-linecap:round;stroke-linejoin:round;stroke-dasharray:none;stroke-dashoffset:0;marker-mid:url(#DartArrow)"
       d="m 109.64421,117.43176 c -1.62839,-1.05915 -3.25679,-2.1183 -5.30402,-3.12246 -2.04724,-1.00417 -4.513219,-1.9533 -6.158726,-2.50772 -1.645507,-0.55441 -2.470458,-0.71408 -3.295426,-0.87375"
       id="path113"
       inkscape:path-effect="#path-effect127"
       inkscape:original-d="m 109.64421,117.43176 c -1.62839,-1.05915 -3.25679,-2.1183 -4.88518,-3.17745 -2.46608,-0.94917 -4.93206,-1.89831 -7.39809,-2.84747 -0.824984,-0.15967 -1.649934,-0.31934 -2.474902,-0.47901"
       transform="matrix(-1,0,0,1,251.20338,-0.00345782)" /><path
       style="fill:none;stroke:#8be9fd;stroke-width:0.396875;stroke-linecap:round;stroke-linejoin:round;stroke-dasharray:none;stroke-dashoffset:0;marker-mid:url(#DartArrow);marker-end:url(#DartArrow)"
       d="m 110.2244,116.82338 c -0.12725,-2.85034 -0.2545,-5.70062 -0.55707,-8.36459 -0.30258,-2.66397 -0.78045,-5.14142 -1.78759,-8.628092 -1.00714,-3.486672 -2.54348,-7.982347 -4.07984,-12.478109"
       id="path114"
       inkscape:path-effect="#path-effect129"
       inkscape:original-d="m 110.2244,116.82338 c -0.12725,-2.85034 -0.2545,-5.70062 -0.38175,-8.55101 -0.4779,-2.47755 -0.95577,-4.955 -1.43366,-7.4325 -1.53639,-4.495845 -3.07273,-8.991518 -4.60909,-13.487281"
       transform="rotate(180,125.70092,117.60204)"
       sodipodi:nodetypes="cccc" /><path
       style="fill:none;stroke:#8be9fd;stroke-width:0.396875;stroke-linecap:round;stroke-linejoin:round;stroke-dasharray:none;stroke-dashoffset:0;marker-mid:url(#DartArrow);marker-end:url(#DartArrow)"
       d="m 109.83975,117.07646 c -0.69827,-1.66173 -1.39653,-3.32345 -2.29298,-5.02248 -0.89644,-1.69904 -1.99102,-3.43532 -3.50623,-5.60126 -1.5152,-2.16595 -3.45094,-4.76142 -4.98466,-6.862341 -1.533721,-2.100921 -2.665343,-3.707171 -3.796988,-5.313454"
       id="path115"
       inkscape:path-effect="#path-effect131"
       inkscape:original-d="m 109.83975,117.07646 c -0.69826,-1.66173 -1.39653,-3.32345 -2.0948,-4.98517 -1.09462,-1.73635 -2.1892,-3.47263 -3.2838,-5.20894 -1.93581,-2.59558 -3.87155,-5.19105 -5.807324,-7.786577 -1.131668,-1.606314 -2.26329,-3.212565 -3.394934,-4.818848"
       transform="rotate(180,125.70092,117.60204)" /><path
       style="fill:none;stroke:#8be9fd;stroke-width:0.396875;stroke-linecap:round;stroke-linejoin:round;stroke-dasharray:none;stroke-dashoffset:0;marker-mid:url(#DartArrow);marker-end:url(#DartArrow)"
       d="m 109.64421,117.43176 c -1.56141,-1.23647 -3.12279,-2.47292 -4.96909,-3.84551 -1.84629,-1.3726 -3.97732,-2.8812 -5.940239,-4.03914 -1.962917,-1.15794 -3.757537,-1.96511 -5.552191,-2.77229"
       id="path116"
       inkscape:path-effect="#path-effect133"
       inkscape:original-d="m 109.64421,117.43176 c -1.56141,-1.23647 -3.12279,-2.47292 -4.68423,-3.70942 -2.13115,-1.50869 -4.26218,-3.01729 -6.393327,-4.52597 -1.794689,-0.8072 -3.589307,-1.61437 -5.383963,-2.42155"
       transform="rotate(180,125.70092,117.60204)"
       sodipodi:nodetypes="cccc" /><path
       style="fill:none;stroke:#8be9fd;stroke-width:0.396875;stroke-linecap:round;stroke-linejoin:round;stroke-dasharray:none;stroke-dashoffset:0;marker-mid:url(#DartArrow);marker-end:url(#DartArrow)"
       d="m 113.34529,118.18571 c 0.0274,4.00211 0.0548,8.00422 -0.0342,11.47776 -0.089,3.47355 -0.29445,6.41841 -0.60261,9.65566 -0.30815,3.23726 -0.71901,6.7667 -1.12988,10.29621"
       id="path117"
       inkscape:path-effect="#path-effect135"
       inkscape:original-d="m 113.34529,118.18571 c 0.0274,4.00211 0.0548,8.00422 0.0822,12.00633 -0.20544,2.94498 -0.41087,5.88984 -0.61631,8.83477 -0.41087,3.52958 -0.82173,7.05902 -1.2326,10.58853"
       transform="matrix(-1,0,0,1,251.20338,-0.00345782)" /><path
       style="fill:none;stroke:#8be9fd;stroke-width:0.396875;stroke-linecap:round;stroke-linejoin:round;stroke-dasharray:none;stroke-dashoffset:0;marker-mid:url(#DartArrow);marker-end:url(#DartArrow)"
       d="m 117.55999,117.98727 c -0.0223,3.73949 -0.0447,7.47898 -0.12282,11.55639 -0.0781,4.0774 -0.21211,8.49254 -0.39074,11.89417 -0.17863,3.40162 -0.40191,5.78954 -0.62519,8.17751"
       id="path118"
       inkscape:path-effect="#path-effect137"
       inkscape:original-d="m 117.55999,117.98727 c -0.0223,3.73949 -0.0447,7.47898 -0.067,11.21847 -0.13397,4.41532 -0.26793,8.83046 -0.4019,13.2457 -0.22329,2.38801 -0.44656,4.77593 -0.66985,7.1639"
       sodipodi:nodetypes="cccc"
       transform="matrix(-1,0,0,1,251.20338,-0.00345782)" /><path
       style="fill:none;stroke:#8be9fd;stroke-width:0.396875;stroke-linecap:round;stroke-linejoin:round;stroke-dasharray:none;stroke-dashoffset:0;marker-mid:url(#DartArrow);marker-end:url(#DartArrow)"
       d="m 122.04792,118.18571 c 0,4.23154 0,8.46309 -0.0223,12.28699 -0.0223,3.82389 -0.067,7.24001 -0.17863,10.32992 -0.11164,3.0899 -0.29026,5.85341 -0.46888,8.61697"
       id="path119"
       inkscape:path-effect="#path-effect139"
       inkscape:original-d="m 122.04792,118.18571 c 0,4.23154 0,8.46309 0,12.69463 -0.0447,3.41625 -0.0893,6.83237 -0.13397,10.24856 -0.17863,2.76362 -0.35725,5.52713 -0.53587,8.29069"
       transform="matrix(-1,0,0,1,251.20338,-0.00345782)" /><path
       style="fill:none;stroke:#8be9fd;stroke-width:0.396875;stroke-linecap:round;stroke-linejoin:round;stroke-dasharray:none;stroke-dashoffset:0;marker-mid:url(#DartArrow);marker-end:url(#DartArrow)"
       d="m 110.2244,116.82338 c -0.12725,-2.85034 -0.2545,-5.70062 -0.55707,-8.36459 -0.30258,-2.66397 -0.78045,-5.14142 -1.78759,-8.628092 -1.00714,-3.486672 -2.54348,-7.982347 -4.07984,-12.478109"
       id="path121"
       inkscape:path-effect="#path-effect143"
       inkscape:original-d="m 110.2244,116.82338 c -0.12725,-2.85034 -0.2545,-5.70062 -0.38175,-8.55101 -0.4779,-2.47755 -0.95577,-4.955 -1.43366,-7.4325 -1.53639,-4.495845 -3.07273,-8.991518 -4.60909,-13.487281"
       transform="matrix(-1,0,0,1,251.40182,0.36668459)"
       sodipodi:nodetypes="cccc" /><path
       style="fill:none;stroke:#8be9fd;stroke-width:0.396875;stroke-linecap:round;stroke-linejoin:round;stroke-dasharray:none;stroke-dashoffset:0;marker-mid:url(#DartArrow);marker-end:url(#DartArrow)"
       d="m 113.34529,118.18571 c 0.0274,4.00211 0.0548,8.00422 -0.0342,11.47776 -0.089,3.47355 -0.29445,6.41841 -0.60261,9.65566 -0.30815,3.23726 -0.71901,6.7667 -1.12988,10.29621"
       id="path122"
       inkscape:path-effect="#path-effect145"
       inkscape:original-d="m 113.34529,118.18571 c 0.0274,4.00211 0.0548,8.00422 0.0822,12.00633 -0.20544,2.94498 -0.41087,5.88984 -0.61631,8.83477 -0.41087,3.52958 -0.82173,7.05902 -1.2326,10.58853"
       transform="rotate(180,125.6017,117.78711)" /><path
       style="fill:none;stroke:#8be9fd;stroke-width:0.396875;stroke-linecap:round;stroke-linejoin:round;stroke-dasharray:none;stroke-dashoffset:0;marker-mid:url(#DartArrow);marker-end:url(#DartArrow)"
       d="m 117.55999,117.98727 c -0.0223,3.73949 -0.0447,7.47898 -0.12282,11.55639 -0.0781,4.0774 -0.21211,8.49254 -0.39074,11.89417 -0.17863,3.40162 -0.40191,5.78954 -0.62519,8.17751"
       id="path123"
       inkscape:path-effect="#path-effect147"
       inkscape:original-d="m 117.55999,117.98727 c -0.0223,3.73949 -0.0447,7.47898 -0.067,11.21847 -0.13397,4.41532 -0.26793,8.83046 -0.4019,13.2457 -0.22329,2.38801 -0.44656,4.77593 -0.66985,7.1639"
       sodipodi:nodetypes="cccc"
       transform="rotate(180,125.6017,117.78711)" /><path
       style="fill:none;stroke:#8be9fd;stroke-width:0.396875;stroke-linecap:round;stroke-linejoin:round;stroke-dasharray:none;stroke-dashoffset:0;marker-mid:url(#DartArrow);marker-end:url(#DartArrow)"
       d="m 122.04792,118.18571 c 0,4.23154 0,8.46309 -0.0223,12.28699 -0.0223,3.82389 -0.067,7.24001 -0.17863,10.32992 -0.11164,3.0899 -0.29026,5.85341 -0.46888,8.61697"
       id="path124"
       inkscape:path-effect="#path-effect149"
       inkscape:original-d="m 122.04792,118.18571 c 0,4.23154 0,8.46309 0,12.69463 -0.0447,3.41625 -0.0893,6.83237 -0.13397,10.24856 -0.17863,2.76362 -0.35725,5.52713 -0.53587,8.29069"
       transform="rotate(180,125.6017,117.78711)" /><path
       style="fill:none;stroke:#8be9fd;stroke-width:0.396875;stroke-linecap:round;stroke-linejoin:round;stroke-dasharray:none;stroke-dashoffset:0;marker-mid:url(#DartArrow);marker-end:url(#DartArrow)"
       d="m 125.60174,117.82973 c 10e-6,4.30202 10e-6,8.60404 2e-5,12.15059 0,3.54655 0,6.33753 0,8.97988 0,2.64236 0,5.13594 0,7.62957"
       id="path149"
       inkscape:path-effect="#path-effect150"
       inkscape:original-d="m 125.60174,117.82973 c 10e-6,4.30202 10e-6,8.60404 2e-5,12.90605 0,2.79109 0,5.58207 0,8.3731 0,2.49368 0,4.98726 0,7.48089" /><path
       style="fill:none;stroke:#8be9fd;stroke-width:0.396875;stroke-linecap:round;stroke-linejoin:round;stroke-dasharray:none;stroke-dashoffset:0;marker-mid:url(#DartArrow);marker-end:url(#DartArrow)"
       d="m 125.60174,117.82973 c 10e-6,4.30202 10e-6,8.60404 2e-5,12.15059 0,3.54655 0,6.33753 0,8.97988 0,2.64236 0,5.13594 0,7.62957"
       id="path150"
       inkscape:path-effect="#path-effect152"
       inkscape:original-d="m 125.60174,117.82973 c 10e-6,4.30202 10e-6,8.60404 2e-5,12.90605 0,2.79109 0,5.58207 0,8.3731 0,2.49368 0,4.98726 0,7.48089"
       transform="matrix(1,0,0,-1,-5.8333336e-5,235.60881)" /></g><path
     style="fill:#bd93f9;stroke:#bd93f9;stroke-width:0.396875;stroke-linecap:round;stroke-linejoin:round;stroke-dasharray:none;stroke-dashoffset:0"
     d="m 109.44576,117.77578 c 10.83645,0.0362 21.6729,0.0724 32.50935,0.1086"
     id="path96"
     inkscape:path-effect="#path-effect97"
     inkscape:original-d="m 109.44576,117.77578 c 10.83645,0.0362 21.6729,0.0724 32.50935,0.1086"
     transform="translate(-91.386291,-84.106959)" /></svg>
