<?xml version="1.0" encoding="UTF-8" standalone="no"?>
<!-- Created with Inkscape (http://www.inkscape.org/) -->

<svg
   width="270.74066"
   height="252.59402"
   viewBox="0 0 71.633458 66.832163"
   version="1.1"
   id="svg1"
   inkscape:version="1.3 (0e150ed, 2023-07-21)"
   sodipodi:docname="hw2_26c.svg"
   inkscape:export-filename="hw2_26c.png"
   inkscape:export-xdpi="1024"
   inkscape:export-ydpi="1024"
   xml:space="preserve"
   xmlns:inkscape="http://www.inkscape.org/namespaces/inkscape"
   xmlns:sodipodi="http://sodipodi.sourceforge.net/DTD/sodipodi-0.dtd"
   xmlns="http://www.w3.org/2000/svg"
   xmlns:svg="http://www.w3.org/2000/svg"
   xmlns:ns1="http://www.iki.fi/pav/software/textext/"><sodipodi:namedview
     id="namedview1"
     pagecolor="#282a36"
     bordercolor="#f8f8f2"
     borderopacity="1"
     inkscape:showpageshadow="true"
     inkscape:pageopacity="0"
     inkscape:pagecheckerboard="false"
     inkscape:deskcolor="#44475a"
     inkscape:document-units="px"
     inkscape:zoom="2.5976569"
     inkscape:cx="137.23906"
     inkscape:cy="178.04507"
     inkscape:window-width="1456"
     inkscape:window-height="1193"
     inkscape:window-x="549"
     inkscape:window-y="25"
     inkscape:window-maximized="0"
     inkscape:current-layer="svg1"
     showguides="true"
     labelstyle="default"
     shape-rendering="auto"
     showgrid="false"
     showborder="true"
     borderlayer="true"
     inkscape:clip-to-page="false"
     inkscape:export-bgcolor="#00000000" /><defs
     id="defs1"><inkscape:path-effect
       effect="bspline"
       id="path-effect18"
       is_visible="true"
       lpeversion="1.3"
       weight="33.333333"
       steps="2"
       helper_size="0"
       apply_no_weight="true"
       apply_with_weight="true"
       only_selected="false"
       uniform="false" /><inkscape:path-effect
       effect="bspline"
       id="path-effect16"
       is_visible="true"
       lpeversion="1.3"
       weight="33.333333"
       steps="2"
       helper_size="0"
       apply_no_weight="true"
       apply_with_weight="true"
       only_selected="false"
       uniform="false" /><inkscape:path-effect
       effect="bspline"
       id="path-effect14"
       is_visible="true"
       lpeversion="1.3"
       weight="33.333333"
       steps="2"
       helper_size="0"
       apply_no_weight="true"
       apply_with_weight="true"
       only_selected="false"
       uniform="false" /><inkscape:path-effect
       effect="bspline"
       id="path-effect12"
       is_visible="true"
       lpeversion="1.3"
       weight="33.333333"
       steps="2"
       helper_size="0"
       apply_no_weight="true"
       apply_with_weight="true"
       only_selected="false"
       uniform="false" /><inkscape:path-effect
       effect="bspline"
       id="path-effect10"
       is_visible="true"
       lpeversion="1.3"
       weight="33.333333"
       steps="2"
       helper_size="0"
       apply_no_weight="true"
       apply_with_weight="true"
       only_selected="false"
       uniform="false" /><inkscape:path-effect
       effect="bspline"
       id="path-effect8"
       is_visible="true"
       lpeversion="1.3"
       weight="33.333333"
       steps="2"
       helper_size="0"
       apply_no_weight="true"
       apply_with_weight="true"
       only_selected="false"
       uniform="false" /><inkscape:path-effect
       effect="bspline"
       id="path-effect4"
       is_visible="true"
       lpeversion="1.3"
       weight="33.333333"
       steps="2"
       helper_size="0"
       apply_no_weight="true"
       apply_with_weight="true"
       only_selected="false"
       uniform="false" /><inkscape:path-effect
       effect="bspline"
       id="path-effect2"
       is_visible="true"
       lpeversion="1.3"
       weight="33.333333"
       steps="2"
       helper_size="0"
       apply_no_weight="true"
       apply_with_weight="true"
       only_selected="false"
       uniform="false" /><inkscape:path-effect
       effect="bspline"
       id="path-effect1"
       is_visible="true"
       lpeversion="1.3"
       weight="33.333333"
       steps="2"
       helper_size="0"
       apply_no_weight="true"
       apply_with_weight="true"
       only_selected="false"
       uniform="false" /><inkscape:path-effect
       effect="bspline"
       id="path-effect186"
       is_visible="true"
       lpeversion="1.3"
       weight="33.333333"
       steps="2"
       helper_size="0"
       apply_no_weight="true"
       apply_with_weight="true"
       only_selected="false"
       uniform="false" /><inkscape:path-effect
       effect="bspline"
       id="path-effect184"
       is_visible="true"
       lpeversion="1.3"
       weight="33.333333"
       steps="2"
       helper_size="0"
       apply_no_weight="true"
       apply_with_weight="true"
       only_selected="false"
       uniform="false" /><inkscape:path-effect
       effect="bspline"
       id="path-effect182"
       is_visible="true"
       lpeversion="1.3"
       weight="33.333333"
       steps="2"
       helper_size="0"
       apply_no_weight="true"
       apply_with_weight="true"
       only_selected="false"
       uniform="false" /><inkscape:path-effect
       effect="bspline"
       id="path-effect180"
       is_visible="true"
       lpeversion="1.3"
       weight="33.333333"
       steps="2"
       helper_size="0"
       apply_no_weight="true"
       apply_with_weight="true"
       only_selected="false"
       uniform="false" /><inkscape:path-effect
       effect="bspline"
       id="path-effect178"
       is_visible="true"
       lpeversion="1.3"
       weight="33.333333"
       steps="2"
       helper_size="0"
       apply_no_weight="true"
       apply_with_weight="true"
       only_selected="false"
       uniform="false" /><inkscape:path-effect
       effect="bspline"
       id="path-effect176"
       is_visible="true"
       lpeversion="1.3"
       weight="33.333333"
       steps="2"
       helper_size="0"
       apply_no_weight="true"
       apply_with_weight="true"
       only_selected="false"
       uniform="false" /><inkscape:path-effect
       effect="bspline"
       id="path-effect170"
       is_visible="true"
       lpeversion="1.3"
       weight="33.333333"
       steps="2"
       helper_size="0"
       apply_no_weight="true"
       apply_with_weight="true"
       only_selected="false"
       uniform="false" /><inkscape:path-effect
       effect="bspline"
       id="path-effect168"
       is_visible="true"
       lpeversion="1.3"
       weight="33.333333"
       steps="2"
       helper_size="0"
       apply_no_weight="true"
       apply_with_weight="true"
       only_selected="false"
       uniform="false" /><inkscape:path-effect
       effect="bspline"
       id="path-effect166"
       is_visible="true"
       lpeversion="1.3"
       weight="33.333333"
       steps="2"
       helper_size="0"
       apply_no_weight="true"
       apply_with_weight="true"
       only_selected="false"
       uniform="false" /><inkscape:path-effect
       effect="bspline"
       id="path-effect164"
       is_visible="true"
       lpeversion="1.3"
       weight="33.333333"
       steps="2"
       helper_size="0"
       apply_no_weight="true"
       apply_with_weight="true"
       only_selected="false"
       uniform="false" /><inkscape:path-effect
       effect="bspline"
       id="path-effect159"
       is_visible="true"
       lpeversion="1.3"
       weight="33.333333"
       steps="2"
       helper_size="0"
       apply_no_weight="true"
       apply_with_weight="true"
       only_selected="false"
       uniform="false" /><inkscape:path-effect
       effect="bspline"
       id="path-effect158"
       is_visible="true"
       lpeversion="1.3"
       weight="33.333333"
       steps="2"
       helper_size="0"
       apply_no_weight="true"
       apply_with_weight="true"
       only_selected="false"
       uniform="false" /><inkscape:path-effect
       effect="bspline"
       id="path-effect157"
       is_visible="true"
       lpeversion="1.3"
       weight="33.333333"
       steps="2"
       helper_size="0"
       apply_no_weight="true"
       apply_with_weight="true"
       only_selected="false"
       uniform="false" /><inkscape:path-effect
       effect="bspline"
       id="path-effect156"
       is_visible="true"
       lpeversion="1.3"
       weight="33.333333"
       steps="2"
       helper_size="0"
       apply_no_weight="true"
       apply_with_weight="true"
       only_selected="false"
       uniform="false" /><inkscape:path-effect
       effect="bspline"
       id="path-effect155"
       is_visible="true"
       lpeversion="1.3"
       weight="33.333333"
       steps="2"
       helper_size="0"
       apply_no_weight="true"
       apply_with_weight="true"
       only_selected="false"
       uniform="false" /><inkscape:path-effect
       effect="bspline"
       id="path-effect153"
       is_visible="true"
       lpeversion="1.3"
       weight="33.333333"
       steps="2"
       helper_size="0"
       apply_no_weight="true"
       apply_with_weight="true"
       only_selected="false"
       uniform="false" /><marker
       style="overflow:visible"
       id="DartArrow"
       refX="0"
       refY="0"
       orient="auto-start-reverse"
       inkscape:stockid="Dart arrow"
       markerWidth="0.75"
       markerHeight="0.75"
       viewBox="0 0 1 1"
       inkscape:isstock="true"
       inkscape:collect="always"
       preserveAspectRatio="xMidYMid"><path
         style="fill:context-stroke;fill-rule:evenodd;stroke:none"
         d="M 0,0 5,-5 -12.5,0 5,5 Z"
         transform="scale(-0.5)"
         id="path6" /></marker><inkscape:path-effect
       effect="bspline"
       id="path-effect35"
       is_visible="true"
       lpeversion="1.3"
       weight="33.333333"
       steps="2"
       helper_size="0"
       apply_no_weight="true"
       apply_with_weight="true"
       only_selected="false"
       uniform="false" /><marker
       style="overflow:visible"
       id="marker3"
       refX="0"
       refY="0"
       orient="auto-start-reverse"
       inkscape:stockid="Dart arrow"
       markerWidth="0.75"
       markerHeight="0.75"
       viewBox="0 0 1 1"
       inkscape:isstock="true"
       inkscape:collect="always"
       preserveAspectRatio="xMidYMid"><path
         style="fill:context-stroke;fill-rule:evenodd;stroke:none"
         d="M 0,0 5,-5 -12.5,0 5,5 Z"
         transform="scale(-0.5)"
         id="path3" /></marker></defs><g
     inkscape:groupmode="layer"
     id="layer2"
     inkscape:label="Layer 2"
     transform="translate(-89.915159,-84.509854)"><g
       transform="matrix(0.35277646,0,0,0.35277646,123.36381,84.786927)"
       ns1:version="1.9.0"
       ns1:texconverter="pdflatex"
       ns1:pdfconverter="inkscape"
       ns1:text="$z$"
       ns1:preamble="/Users/junseo/Library/Application Support/org.inkscape.Inkscape/config/inkscape/extensions/textext/default_packages.tex"
       ns1:scale="1.0"
       ns1:alignment="middle center"
       ns1:stroke-to-path="0"
       ns1:inkscapeversion="1.3"
       id="g4404"
       ns1:jacobian_sqrt="1.33333"
       style="fill:#f8f8f2;stroke-width:0"><defs
   id="id-d77abe37-a8fd-4475-b43c-b9cde2fbeb18"
   style="fill:#f8f8f2;stroke-width:0" />&#10;  <g
   fill-opacity="1"
   id="id-d02c33c4-f40e-459f-b214-90f0f4081c15"
   transform="translate(-149.134,-130.359)"
   style="fill:#f8f8f2;stroke-width:0"
   inkscape:label="id-d02c33c4-f40e-459f-b214-90f0f4081c15">&#10;    <g
   transform="translate(148.712,134.765)"
   id="g4510"
   style="fill:#f8f8f2;stroke-width:0"><path
   d="m 1.328125,-0.828125 c 0.53125,-0.578125 0.828125,-0.828125 1.1875,-1.140625 0,0 0.609375,-0.53125 0.96875,-0.890625 C 4.4375,-3.78125 4.65625,-4.265625 4.65625,-4.3125 c 0,-0.09375 -0.09375,-0.09375 -0.109375,-0.09375 -0.078125,0 -0.09375,0.015625 -0.15625,0.109375 -0.296875,0.484375 -0.5,0.640625 -0.734375,0.640625 -0.25,0 -0.359375,-0.15625 -0.515625,-0.328125 -0.1875,-0.21875 -0.359375,-0.421875 -0.6875,-0.421875 -0.75,0 -1.203125,0.921875 -1.203125,1.140625 0,0.046875 0.03125,0.109375 0.109375,0.109375 0.09375,0 0.109375,-0.046875 0.140625,-0.109375 0.1875,-0.46875 0.765625,-0.46875 0.84375,-0.46875 0.203125,0 0.390625,0.0625 0.625,0.140625 0.40625,0.15625 0.515625,0.15625 0.765625,0.15625 -0.359375,0.421875 -1.1875,1.140625 -1.375,1.296875 l -0.90625,0.84375 C 0.78125,-0.625 0.421875,-0.0625 0.421875,0.015625 c 0,0.09375 0.109375,0.09375 0.125,0.09375 0.078125,0 0.09375,-0.015625 0.15625,-0.125 0.234375,-0.359375 0.53125,-0.625 0.859375,-0.625 0.21875,0 0.328125,0.09375 0.578125,0.375 0.15625,0.21875 0.34375,0.375 0.625,0.375 1,0 1.578125,-1.265625 1.578125,-1.53125 0,-0.046875 -0.046875,-0.109375 -0.125,-0.109375 -0.09375,0 -0.109375,0.0625 -0.140625,0.140625 C 3.84375,-0.75 3.203125,-0.5625 2.875,-0.5625 c -0.1875,0 -0.375,-0.0625 -0.578125,-0.125 -0.34375,-0.125 -0.5,-0.171875 -0.703125,-0.171875 -0.015625,0 -0.171875,0 -0.265625,0.03125 z m 0,0"
   id="id-2317d0a5-f306-4b80-94ef-0862c17211a7"
   style="fill:#f8f8f2;stroke-width:0" />&#10;      </g></g>&#10;</g></g><g
     inkscape:label="Layer 1"
     inkscape:groupmode="layer"
     id="layer1"
     transform="translate(-89.915159,-84.509854)"><path
       style="fill:#f8f8f2;fill-opacity:1;stroke:#f8f8f2;stroke-width:0.378287;stroke-linecap:round;stroke-linejoin:round;stroke-miterlimit:3.5;stroke-dasharray:none;stroke-dashoffset:0;stroke-opacity:1;marker-end:url(#DartArrow);paint-order:fill markers stroke"
       d="m 10.314492,82.856066 c 20.292073,0.05794 40.584145,0.115874 60.876219,0.173811"
       id="xaxis"
       sodipodi:nodetypes="cc"
       transform="matrix(1.1137072,0,0,0.98831273,80.288174,35.829057)"
       inkscape:original-d="m 10.314492,82.856066 c 20.292073,0.05794 40.584145,0.115874 60.876219,0.173811"
       inkscape:path-effect="#path-effect35"
       inkscape:label="xaxis" /><path
       style="fill:#f8f8f2;stroke:#f8f8f2;stroke-width:0.396875;stroke-linecap:round;stroke-dasharray:none;marker-end:url(#marker3);paint-order:fill markers stroke"
       d="m 125.60182,149.22115 -1.3e-4,-62.57396"
       id="yaxis"
       sodipodi:nodetypes="cc"
       inkscape:label="yaxis" /><g
       transform="matrix(0.374263,0,0,0.332526,158.71182,119.48485)"
       ns1:version="1.9.0"
       ns1:texconverter="pdflatex"
       ns1:pdfconverter="inkscape"
       ns1:text="$x$"
       ns1:preamble="/Users/junseo/Library/Application Support/org.inkscape.Inkscape/config/inkscape/extensions/textext/default_packages.tex"
       ns1:scale="1.0"
       ns1:alignment="middle center"
       ns1:stroke-to-path="0"
       ns1:inkscapeversion="1.3"
       id="x"
       ns1:jacobian_sqrt="0.3527778030687305"
       style="fill:#f8f8f2;stroke-width:0"><defs
   id="id-f403d21e-246b-498a-aef5-27e741de8ccc"
   style="fill:#f8f8f2;stroke-width:0" />&#10;  <g
   fill-opacity="1"
   id="id-24d7034b-b791-4e12-8c96-cb9ceaee4c9a"
   transform="translate(-149.009,-130.359)"
   style="fill:#f8f8f2;stroke-width:0">&#10;    <g
   transform="translate(148.712,134.765)"
   id="g4655"
   style="fill:#f8f8f2;stroke-width:0"><path
   d="M 3.328125,-3.015625 C 3.390625,-3.265625 3.625,-4.1875 4.3125,-4.1875 c 0.046875,0 0.296875,0 0.5,0.125 C 4.53125,-4 4.34375,-3.765625 4.34375,-3.515625 c 0,0.15625 0.109375,0.34375 0.375,0.34375 0.21875,0 0.53125,-0.171875 0.53125,-0.578125 0,-0.515625 -0.578125,-0.65625 -0.921875,-0.65625 -0.578125,0 -0.921875,0.53125 -1.046875,0.75 -0.25,-0.65625 -0.78125,-0.75 -1.078125,-0.75 -1.03125,0 -1.609375,1.28125 -1.609375,1.53125 0,0.109375 0.109375,0.109375 0.125,0.109375 0.078125,0 0.109375,-0.03125 0.125,-0.109375 0.34375,-1.0625 1,-1.3125 1.34375,-1.3125 0.1875,0 0.53125,0.09375 0.53125,0.671875 0,0.3125 -0.171875,0.96875 -0.53125,2.375 -0.15625,0.609375 -0.515625,1.03125 -0.953125,1.03125 -0.0625,0 -0.28125,0 -0.5,-0.125 0.25,-0.0625 0.46875,-0.265625 0.46875,-0.546875 0,-0.265625 -0.21875,-0.34375 -0.359375,-0.34375 -0.3125,0 -0.546875,0.25 -0.546875,0.578125 0,0.453125 0.484375,0.65625 0.921875,0.65625 0.671875,0 1.03125,-0.703125 1.046875,-0.75 0.125,0.359375 0.484375,0.75 1.078125,0.75 1.03125,0 1.59375,-1.28125 1.59375,-1.53125 0,-0.109375 -0.078125,-0.109375 -0.109375,-0.109375 -0.09375,0 -0.109375,0.046875 -0.140625,0.109375 -0.328125,1.078125 -1,1.3125 -1.3125,1.3125 -0.390625,0 -0.546875,-0.3125 -0.546875,-0.65625 0,-0.21875 0.046875,-0.4375 0.15625,-0.875 z m 0,0"
   id="id-fcb164f3-010b-422c-bf3d-2ea59d139ecc"
   style="fill:#f8f8f2;stroke-width:0" />&#10;      </g></g>&#10;</g></g><path
     style="fill:#8be9fd;stroke:#8be9fd;stroke-width:0.396875;stroke-linecap:round;stroke-linejoin:round;stroke-dasharray:none;stroke-dashoffset:0;marker-end:url(#DartArrow)"
     d="m 88.992946,70.273957 c -4.231248,-0.01413 -8.462499,-0.02826 -12.693747,-0.04239"
     id="path153"
     inkscape:path-effect="#path-effect153"
     inkscape:original-d="m 88.992946,70.273957 c -4.231248,-0.01413 -8.462499,-0.02826 -12.693747,-0.04239"
     transform="translate(-74.438859,-37.024654)" /><path
     style="fill:#8be9fd;stroke:#8be9fd;stroke-width:0.396875;stroke-linecap:round;stroke-linejoin:round;stroke-dasharray:none;stroke-dashoffset:0;marker-end:url(#DartArrow)"
     d="m 88.992946,70.273957 c -4.231248,-0.01413 -8.462499,-0.02826 -12.693747,-0.04239"
     id="path154"
     inkscape:path-effect="#path-effect155"
     inkscape:original-d="m 88.992946,70.273957 c -4.231248,-0.01413 -8.462499,-0.02826 -12.693747,-0.04239"
     transform="matrix(-1,0,0,1,145.95782,-36.852879)" /><path
     style="fill:none;stroke:#8be9fd;stroke-width:0.396875;stroke-linecap:round;stroke-linejoin:round;stroke-dasharray:none;stroke-dashoffset:0;marker-mid:url(#DartArrow);marker-end:url(#DartArrow)"
     d="m 131.29012,70.448976 c 1.20508,-3.599128 2.41015,-7.198252 4.00481,-11.044724 1.59467,-3.846471 3.57883,-7.940131 5.12168,-10.603161 1.54285,-2.663029 2.64429,-3.895304 3.74575,-5.127599"
     id="path156"
     inkscape:path-effect="#path-effect157"
     inkscape:original-d="m 131.29012,70.448976 c 1.20508,-3.599127 2.41015,-7.198253 3.61523,-10.797378 1.98424,-4.09382 3.96842,-8.187475 5.95262,-12.281211 1.10149,-1.232323 2.20293,-2.464599 3.30439,-3.696895"
     transform="translate(-74.438859,-37.024654)" /><path
     style="fill:none;stroke:#8be9fd;stroke-width:0.396875;stroke-linecap:round;stroke-linejoin:round;stroke-dasharray:none;stroke-dashoffset:0;marker-mid:url(#DartArrow);marker-end:url(#DartArrow)"
     d="m 131.29012,70.448976 c 1.20508,-3.599128 2.41015,-7.198252 4.00481,-11.044724 1.59467,-3.846471 3.57883,-7.940131 5.12168,-10.603161 1.54285,-2.663029 2.64429,-3.895304 3.74575,-5.127599"
     id="path161"
     inkscape:path-effect="#path-effect166"
     inkscape:original-d="m 131.29012,70.448976 c 1.20508,-3.599127 2.41015,-7.198253 3.61523,-10.797378 1.98424,-4.09382 3.96842,-8.187475 5.95262,-12.281211 1.10149,-1.232323 2.20293,-2.464599 3.30439,-3.696895"
     transform="matrix(1,0,0,-1,-74.438859,103.8665)" /><path
     style="fill:none;stroke:#8be9fd;stroke-width:0.396875;stroke-linecap:round;stroke-linejoin:round;stroke-dasharray:none;stroke-dashoffset:0;marker-mid:url(#DartArrow);marker-end:url(#DartArrow)"
     d="m 110.12546,70.317269 c -2e-5,-9.445193 -5e-5,-18.890386 -7e-5,-28.335579"
     id="path163"
     inkscape:path-effect="#path-effect170"
     inkscape:original-d="m 110.12546,70.317269 c -2e-5,-9.445193 -4e-5,-18.890386 -7e-5,-28.335579"
     transform="matrix(1,0,0,-1,-74.438859,103.8665)" /><path
     style="fill:none;stroke:#8be9fd;stroke-width:0.396875;stroke-linecap:round;stroke-linejoin:round;stroke-dasharray:none;stroke-dashoffset:0;marker-mid:url(#DartArrow);marker-end:url(#DartArrow)"
     d="m 131.29012,70.448976 c 1.20508,-3.599128 2.41015,-7.198252 4.00481,-11.044724 1.59467,-3.846471 3.57883,-7.940131 5.12168,-10.603161 1.54285,-2.663029 2.64429,-3.895304 3.74575,-5.127599"
     id="path171"
     inkscape:path-effect="#path-effect178"
     inkscape:original-d="m 131.29012,70.448976 c 1.20508,-3.599127 2.41015,-7.198253 3.61523,-10.797378 1.98424,-4.09382 3.96842,-8.187475 5.95262,-12.281211 1.10149,-1.232323 2.20293,-2.464599 3.30439,-3.696895"
     transform="matrix(-1,0,0,1,146.0316,-37.03434)" /><path
     style="fill:none;stroke:#8be9fd;stroke-width:0.396875;stroke-linecap:round;stroke-linejoin:round;stroke-dasharray:none;stroke-dashoffset:0;marker-mid:url(#DartArrow);marker-end:url(#DartArrow)"
     d="m 131.29012,70.448976 c 1.20508,-3.599128 2.41015,-7.198252 4.00481,-11.044724 1.59467,-3.846471 3.57883,-7.940131 5.12168,-10.603161 1.54285,-2.663029 2.64429,-3.895304 3.74575,-5.127599"
     id="path174"
     inkscape:path-effect="#path-effect184"
     inkscape:original-d="m 131.29012,70.448976 c 1.20508,-3.599127 2.41015,-7.198253 3.61523,-10.797378 1.98424,-4.09382 3.96842,-8.187475 5.95262,-12.281211 1.10149,-1.232323 2.20293,-2.464599 3.30439,-3.696895"
     transform="rotate(180,73.015811,51.928405)" /><path
     style="fill:none;stroke:#8be9fd;stroke-width:0.396875;stroke-linecap:round;stroke-linejoin:round;marker-mid:url(#DartArrow);marker-end:url(#DartArrow)"
     d="m 51.117617,32.141652 c 0.194633,4.346318 0.389266,8.692633 0.960897,12.899736 0.571631,4.207102 1.520223,8.274829 2.411595,11.209256 0.891371,2.934428 1.725473,4.735407 2.55959,6.53642"
     id="path2"
     inkscape:path-effect="#path-effect2"
     inkscape:original-d="m 51.117617,32.141652 c 0.194633,4.346318 0.389266,8.692633 0.583899,13.038951 0.948629,4.067887 1.897221,8.135614 2.845831,12.203421 0.834133,1.801048 1.668235,3.602027 2.502352,5.40304" /><path
     style="fill:none;stroke:#8be9fd;stroke-width:0.396875;stroke-linecap:round;stroke-linejoin:round;marker-mid:url(#DartArrow);marker-end:url(#DartArrow)"
     d="m 43.613709,33.544743 c 0,4.618275 0,9.23655 0.323259,13.334006 0.323259,4.097456 0.969752,7.673953 1.556952,10.207499 0.5872,2.533545 1.115074,4.024011 1.642957,5.514504"
     id="path4"
     inkscape:path-effect="#path-effect4"
     inkscape:original-d="m 43.613709,33.544743 c 0,4.618275 0,9.23655 0,13.854823 0.646517,3.576639 1.293011,7.153136 1.939517,10.729705 0.527894,1.490522 1.055767,2.980988 1.583651,4.471481" /><path
     style="fill:none;stroke:#8be9fd;stroke-width:0.396875;stroke-linecap:round;stroke-linejoin:round;marker-mid:url(#DartArrow);marker-end:url(#DartArrow)"
     d="m 51.117617,32.141652 c 0.194633,4.346318 0.389266,8.692633 0.960897,12.899736 0.571631,4.207102 1.520223,8.274829 2.411595,11.209256 0.891371,2.934428 1.725473,4.735407 2.55959,6.53642"
     id="path14"
     inkscape:path-effect="#path-effect16"
     inkscape:original-d="m 51.117617,32.141652 c 0.194633,4.346318 0.389266,8.692633 0.583899,13.038951 0.948629,4.067887 1.897221,8.135614 2.845831,12.203421 0.834133,1.801048 1.668235,3.602027 2.502352,5.40304"
     transform="matrix(-1,0,0,1,71.373066,-0.30236014)" /><path
     style="fill:none;stroke:#8be9fd;stroke-width:0.396875;stroke-linecap:round;stroke-linejoin:round;marker-mid:url(#DartArrow);marker-end:url(#DartArrow)"
     d="m 43.613709,33.544743 c 0,4.618275 0,9.23655 0.323259,13.334006 0.323259,4.097456 0.969752,7.673953 1.556952,10.207499 0.5872,2.533545 1.115074,4.024011 1.642957,5.514504"
     id="path15"
     inkscape:path-effect="#path-effect18"
     inkscape:original-d="m 43.613709,33.544743 c 0,4.618275 0,9.23655 0,13.854823 0.646517,3.576639 1.293011,7.153136 1.939517,10.729705 0.527894,1.490522 1.055767,2.980988 1.583651,4.471481"
     transform="matrix(-1,0,0,1,71.373066,-0.30236014)" /><ellipse
     style="fill:#bd93f9;stroke:#bd93f9;stroke-width:0.396875;stroke-linecap:round;stroke-linejoin:round;stroke-dasharray:none;stroke-dashoffset:0"
     id="path152"
     cx="35.6866"
     cy="33.42432"
     rx="21.164661"
     ry="3.1964731" /><path
     style="fill:none;stroke:#8be9fd;stroke-width:0.396875;stroke-linecap:round;stroke-linejoin:round;stroke-dasharray:none;stroke-dashoffset:0;marker-mid:url(#DartArrow);marker-end:url(#DartArrow)"
     d="m 110.12546,70.317269 c -2e-5,-9.445193 -5e-5,-18.890386 -7e-5,-28.335579"
     id="path158"
     inkscape:path-effect="#path-effect159"
     inkscape:original-d="m 110.12546,70.317269 c -2e-5,-9.445193 -4e-5,-18.890386 -7e-5,-28.335579"
     transform="translate(-74.438859,-37.024653)" /><path
     style="fill:none;stroke:#8be9fd;stroke-width:0.396875;stroke-linecap:round;stroke-linejoin:round;marker-mid:url(#DartArrow);marker-end:url(#DartArrow)"
     d="m 51.171207,33.369801 c 0.17677,3.936935 0.353539,7.873867 0.916239,11.876278 0.562699,4.002411 1.511291,8.070138 2.402663,11.004565 0.891371,2.934428 1.725473,4.735407 2.55959,6.53642"
     id="path5"
     inkscape:path-effect="#path-effect8"
     inkscape:original-d="m 51.171207,33.369801 c 0.17677,3.936935 0.353539,7.873867 0.530309,11.810802 0.948629,4.067887 1.897221,8.135614 2.845831,12.203421 0.834133,1.801048 1.668235,3.602027 2.502352,5.40304"
     transform="matrix(1,0,0,-1,0,66.701647)"
     sodipodi:nodetypes="cccc" /><path
     style="fill:none;stroke:#8be9fd;stroke-width:0.396875;stroke-linecap:round;stroke-linejoin:round;marker-mid:url(#DartArrow);marker-end:url(#DartArrow)"
     d="m 43.613709,33.544743 c 0,4.618275 0,9.23655 0.323259,13.334006 0.323259,4.097456 0.969752,7.673953 1.556952,10.207499 0.5872,2.533545 1.115074,4.024011 1.642957,5.514504"
     id="path7"
     inkscape:path-effect="#path-effect10"
     inkscape:original-d="m 43.613709,33.544743 c 0,4.618275 0,9.23655 0,13.854823 0.646517,3.576639 1.293011,7.153136 1.939517,10.729705 0.527894,1.490522 1.055767,2.980988 1.583651,4.471481"
     transform="matrix(1,0,0,-1,0,66.701647)" /><path
     style="fill:none;stroke:#8be9fd;stroke-width:0.396875;stroke-linecap:round;stroke-linejoin:round;marker-mid:url(#DartArrow);marker-end:url(#DartArrow)"
     d="m 51.181429,33.249702 c 0.173362,3.976968 0.346725,7.953933 0.90772,11.976361 0.560996,4.022427 1.509588,8.090154 2.40096,11.024581 0.891371,2.934428 1.725473,4.735407 2.55959,6.53642"
     id="path10"
     inkscape:path-effect="#path-effect12"
     inkscape:original-d="m 51.181429,33.249702 c 0.173363,3.976968 0.346725,7.953933 0.520087,11.930901 0.948629,4.067887 1.897221,8.135614 2.845831,12.203421 0.834133,1.801048 1.668235,3.602027 2.502352,5.40304"
     transform="rotate(180,35.686533,33.251528)"
     sodipodi:nodetypes="cccc" /><path
     style="fill:none;stroke:#8be9fd;stroke-width:0.396875;stroke-linecap:round;stroke-linejoin:round;marker-mid:url(#DartArrow);marker-end:url(#DartArrow)"
     d="m 43.613709,33.544743 c 0,4.618275 0,9.23655 0.323259,13.334006 0.323259,4.097456 0.969752,7.673953 1.556952,10.207499 0.5872,2.533545 1.115074,4.024011 1.642957,5.514504"
     id="path11"
     inkscape:path-effect="#path-effect14"
     inkscape:original-d="m 43.613709,33.544743 c 0,4.618275 0,9.23655 0,13.854823 0.646517,3.576639 1.293011,7.153136 1.939517,10.729705 0.527894,1.490522 1.055767,2.980988 1.583651,4.471481"
     transform="rotate(180,35.686533,33.251528)" /></svg>
