<?xml version="1.0" encoding="UTF-8" standalone="no"?>
<!-- Created with Inkscape (http://www.inkscape.org/) -->

<svg
   width="793.70081"
   height="559.37006"
   viewBox="0 0 209.99998 147.99998"
   version="1.1"
   id="svg1"
   inkscape:version="1.3 (0e150ed, 2023-07-21)"
   sodipodi:docname="helicity.svg"
   inkscape:export-filename="helicity.png"
   inkscape:export-xdpi="1024"
   inkscape:export-ydpi="1024"
   xmlns:inkscape="http://www.inkscape.org/namespaces/inkscape"
   xmlns:sodipodi="http://sodipodi.sourceforge.net/DTD/sodipodi-0.dtd"
   xmlns="http://www.w3.org/2000/svg"
   xmlns:svg="http://www.w3.org/2000/svg"
   xmlns:ns1="http://www.iki.fi/pav/software/textext/">
  <sodipodi:namedview
     id="namedview1"
     pagecolor="#282a36"
     bordercolor="#f8f8f2"
     borderopacity="1"
     inkscape:showpageshadow="true"
     inkscape:pageopacity="0"
     inkscape:pagecheckerboard="false"
     inkscape:deskcolor="#44475a"
     inkscape:document-units="px"
     inkscape:zoom="2.827903"
     inkscape:cx="513.80829"
     inkscape:cy="199.61788"
     inkscape:window-width="1392"
     inkscape:window-height="891"
     inkscape:window-x="109"
     inkscape:window-y="37"
     inkscape:window-maximized="0"
     inkscape:current-layer="layer1"
     showguides="false"
     labelstyle="default"
     shape-rendering="auto"
     showgrid="false"
     showborder="true"
     borderlayer="true"
     inkscape:clip-to-page="false"
     inkscape:export-bgcolor="#00000000" />
  <defs
     id="defs1">
    <inkscape:path-effect
       effect="bspline"
       id="path-effect46"
       is_visible="true"
       lpeversion="1.3"
       weight="33.333333"
       steps="2"
       helper_size="0"
       apply_no_weight="true"
       apply_with_weight="true"
       only_selected="false"
       uniform="false" />
    <inkscape:path-effect
       effect="bspline"
       id="path-effect43"
       is_visible="true"
       lpeversion="1.3"
       weight="33.333333"
       steps="2"
       helper_size="0"
       apply_no_weight="true"
       apply_with_weight="true"
       only_selected="false"
       uniform="false" />
    <inkscape:path-effect
       effect="bspline"
       id="path-effect36"
       is_visible="true"
       lpeversion="1.3"
       weight="33.333333"
       steps="2"
       helper_size="0"
       apply_no_weight="true"
       apply_with_weight="true"
       only_selected="false"
       uniform="false" />
    <marker
       style="overflow:visible"
       id="DartArrow"
       refX="0"
       refY="0"
       orient="auto-start-reverse"
       inkscape:stockid="Dart arrow"
       markerWidth="1"
       markerHeight="1"
       viewBox="0 0 1 1"
       inkscape:isstock="true"
       inkscape:collect="always"
       preserveAspectRatio="xMidYMid">
      <path
         style="fill:context-stroke;fill-rule:evenodd;stroke:none"
         d="M 0,0 5,-5 -12.5,0 5,5 Z"
         transform="scale(-0.5)"
         id="path6" />
    </marker>
    <inkscape:path-effect
       effect="bspline"
       id="path-effect35"
       is_visible="true"
       lpeversion="1.3"
       weight="33.333333"
       steps="2"
       helper_size="0"
       apply_no_weight="true"
       apply_with_weight="true"
       only_selected="false"
       uniform="false" />
    <inkscape:path-effect
       effect="bspline"
       id="path-effect34"
       is_visible="true"
       lpeversion="1.3"
       weight="33.333333"
       steps="2"
       helper_size="0"
       apply_no_weight="true"
       apply_with_weight="true"
       only_selected="false"
       uniform="false" />
    <inkscape:path-effect
       effect="bspline"
       id="path-effect31"
       is_visible="true"
       lpeversion="1.3"
       weight="33.333333"
       steps="2"
       helper_size="0"
       apply_no_weight="true"
       apply_with_weight="true"
       only_selected="false"
       uniform="false" />
    <inkscape:path-effect
       effect="bspline"
       id="path-effect30"
       is_visible="true"
       lpeversion="1.3"
       weight="33.333333"
       steps="2"
       helper_size="0"
       apply_no_weight="true"
       apply_with_weight="true"
       only_selected="false"
       uniform="false" />
    <inkscape:path-effect
       effect="bspline"
       id="path-effect7"
       is_visible="true"
       lpeversion="1.3"
       weight="33.333333"
       steps="2"
       helper_size="0"
       apply_no_weight="true"
       apply_with_weight="true"
       only_selected="false"
       uniform="false" />
    <inkscape:path-effect
       effect="bspline"
       id="path-effect5"
       is_visible="true"
       lpeversion="1.3"
       weight="33.333333"
       steps="2"
       helper_size="0"
       apply_no_weight="true"
       apply_with_weight="true"
       only_selected="false"
       uniform="false" />
    <inkscape:perspective
       sodipodi:type="inkscape:persp3d"
       inkscape:vp_x="49.143397 : 120.52759 : 1"
       inkscape:vp_y="0 : 999.99973 : 0"
       inkscape:vp_z="259.14341 : 120.52759 : 1"
       inkscape:persp3d-origin="154.14342 : 71.027599 : 1"
       id="perspective1" />
    <g
       id="id-b8a4aed7-e9ae-4af3-870d-8e34b9a2cc07-3"
       style="fill:#f8f8f2;stroke-width:0">
      <g
         id="id-86ac640a-69a0-4603-a5dc-f4f5d6726904-9"
         style="fill:#f8f8f2;stroke-width:0">
        <path
           d="m 4.84375,-3.796875 c 0.046875,-0.140625 0.046875,-0.15625 0.046875,-0.234375 0,-0.171875 -0.140625,-0.265625 -0.296875,-0.265625 -0.09375,0 -0.25,0.0625 -0.34375,0.203125 -0.015625,0.0625 -0.109375,0.359375 -0.140625,0.546875 -0.078125,0.25 -0.140625,0.53125 -0.203125,0.796875 l -0.453125,1.796875 c -0.03125,0.140625 -0.46875,0.84375 -1.125,0.84375 -0.5,0 -0.609375,-0.4375 -0.609375,-0.8125 C 1.71875,-1.375 1.890625,-2 2.21875,-2.875 2.375,-3.28125 2.421875,-3.390625 2.421875,-3.59375 c 0,-0.4375 -0.3125,-0.8125 -0.8125,-0.8125 -0.953125,0 -1.3125,1.453125 -1.3125,1.53125 0,0.109375 0.09375,0.109375 0.109375,0.109375 0.109375,0 0.109375,-0.03125 0.15625,-0.1875 0.28125,-0.9375 0.671875,-1.234375 1.015625,-1.234375 0.078125,0 0.25,0 0.25,0.3125 0,0.25 -0.109375,0.515625 -0.171875,0.703125 -0.40625,1.0625 -0.578125,1.625 -0.578125,2.09375 0,0.890625 0.625,1.1875 1.21875,1.1875 0.390625,0 0.71875,-0.171875 1,-0.453125 -0.125,0.515625 -0.25,1.015625 -0.640625,1.546875 -0.265625,0.328125 -0.640625,0.625 -1.09375,0.625 -0.140625,0 -0.59375,-0.03125 -0.765625,-0.421875 0.15625,0 0.296875,0 0.421875,-0.125 C 1.328125,1.203125 1.421875,1.0625 1.421875,0.875 1.421875,0.5625 1.15625,0.53125 1.0625,0.53125 0.828125,0.53125 0.5,0.6875 0.5,1.171875 c 0,0.5 0.4375,0.875 1.0625,0.875 1.015625,0 2.046875,-0.90625 2.328125,-2.03125 z m 0,0"
           id="id-74cf2ef8-915b-45ad-b459-f602d0e318f5-6"
           style="fill:#f8f8f2;stroke-width:0" />
      </g>
    </g>
    <g
       id="id-72324617-77d0-4b39-92a5-5e3bf18f97e4-7"
       style="fill:#f8f8f2;stroke-width:0">
      <g
         id="id-7dc801f6-5404-44fa-bde5-390db008e098-2"
         style="fill:#f8f8f2;stroke-width:0">
        <path
           d="m 1.859375,-2.296875 c 0.296875,0 1.03125,-0.03125 1.53125,-0.234375 0.703125,-0.296875 0.75,-0.890625 0.75,-1.03125 0,-0.4375 -0.375,-0.84375 -1.0625,-0.84375 -1.109375,0 -2.625,0.96875 -2.625,2.71875 0,1.015625 0.59375,1.796875 1.578125,1.796875 1.421875,0 2.25,-1.0625 2.25,-1.171875 0,-0.0625 -0.046875,-0.140625 -0.109375,-0.140625 -0.0625,0 -0.078125,0.03125 -0.140625,0.109375 -0.78125,0.984375 -1.875,0.984375 -1.984375,0.984375 -0.78125,0 -0.875,-0.84375 -0.875,-1.15625 0,-0.125 0.015625,-0.421875 0.15625,-1.03125 z m -0.46875,-0.21875 C 1.78125,-4.03125 2.8125,-4.1875 3.078125,-4.1875 c 0.453125,0 0.734375,0.296875 0.734375,0.625 0,1.046875 -1.59375,1.046875 -2.015625,1.046875 z m 0,0"
           id="id-fa5099cd-ee51-4827-bb70-0604fcc691b9-9"
           style="fill:#f8f8f2;stroke-width:0" />
      </g>
      <g
         id="id-36376444-19e0-4cd9-9b96-bb6df660256d-8"
         style="fill:#f8f8f2;stroke-width:0">
        <path
           d="m 5.1875,-1.578125 c 0.109375,0 0.28125,0 0.28125,-0.15625 0,-0.1875 -0.171875,-0.1875 -0.28125,-0.1875 H 1.03125 c -0.109375,0 -0.28125,0 -0.28125,0.171875 0,0.171875 0.15625,0.171875 0.28125,0.171875 z m 0,0"
           id="id-4ca4738e-8df1-4870-bd06-799a6273f62f-1"
           style="fill:#f8f8f2;stroke-width:0" />
      </g>
    </g>
  </defs>
  <g
     inkscape:label="Layer 1"
     inkscape:groupmode="layer"
     id="layer1"
     transform="translate(-15.4763,-47.4852)">
    <path
       style="fill:none;stroke:#8be9fd;stroke-width:0.26458331;stroke-linecap:round;stroke-dasharray:none;marker-end:url(#DartArrow)"
       d="M 143.48942,95.466129 V 83.374934"
       id="path2" />
    <path
       style="fill:#ff5555;stroke:#ff5555;stroke-width:0.264583;stroke-linecap:round;stroke-dasharray:none;marker-end:url(#DartArrow)"
       d="m 143.48942,95.466129 v 6.907811"
       id="path4" />
    <path
       style="fill:none;stroke:#8be9fd;stroke-width:0.264583;stroke-linecap:round;stroke-dasharray:none;marker-end:url(#DartArrow)"
       d="M 153.62734,95.466129 V 83.374934"
       id="path5" />
    <path
       style="fill:#ff5555;stroke:#ff5555;stroke-width:0.264583;stroke-linecap:round;stroke-dasharray:none;marker-end:url(#DartArrow)"
       d="M 157.52654,95.466129 V 88.558321"
       id="path7" />
    <g
       transform="matrix(0.352778,0,0,0.352778,142.29947,79.099577)"
       ns1:version="1.9.0"
       ns1:texconverter="pdflatex"
       ns1:pdfconverter="inkscape"
       ns1:text="$e^-$"
       ns1:preamble="/Users/junseo/Library/Application Support/org.inkscape.Inkscape/config/inkscape/extensions/textext/default_packages.tex"
       ns1:scale="1.0"
       ns1:alignment="middle center"
       ns1:stroke-to-path="0"
       ns1:inkscapeversion="1.3"
       id="y-5"
       ns1:jacobian_sqrt="0.352778"
       style="fill:#f8f8f2;stroke-width:0">
      <defs
         id="id-22b33e14-cd7a-4555-bb48-3c02fad788c7"
         style="fill:#f8f8f2;stroke-width:0">
        <g
           id="id-72324617-77d0-4b39-92a5-5e3bf18f97e4"
           style="fill:#f8f8f2;stroke-width:0">
          <g
             id="id-7dc801f6-5404-44fa-bde5-390db008e098"
             style="fill:#f8f8f2;stroke-width:0">
            <path
               d="m 1.859375,-2.296875 c 0.296875,0 1.03125,-0.03125 1.53125,-0.234375 0.703125,-0.296875 0.75,-0.890625 0.75,-1.03125 0,-0.4375 -0.375,-0.84375 -1.0625,-0.84375 -1.109375,0 -2.625,0.96875 -2.625,2.71875 0,1.015625 0.59375,1.796875 1.578125,1.796875 1.421875,0 2.25,-1.0625 2.25,-1.171875 0,-0.0625 -0.046875,-0.140625 -0.109375,-0.140625 -0.0625,0 -0.078125,0.03125 -0.140625,0.109375 -0.78125,0.984375 -1.875,0.984375 -1.984375,0.984375 -0.78125,0 -0.875,-0.84375 -0.875,-1.15625 0,-0.125 0.015625,-0.421875 0.15625,-1.03125 z m -0.46875,-0.21875 C 1.78125,-4.03125 2.8125,-4.1875 3.078125,-4.1875 c 0.453125,0 0.734375,0.296875 0.734375,0.625 0,1.046875 -1.59375,1.046875 -2.015625,1.046875 z m 0,0"
               id="id-fa5099cd-ee51-4827-bb70-0604fcc691b9"
               style="fill:#f8f8f2;stroke-width:0" />
          </g>
          <g
             id="id-36376444-19e0-4cd9-9b96-bb6df660256d"
             style="fill:#f8f8f2;stroke-width:0">
            <path
               d="m 5.1875,-1.578125 c 0.109375,0 0.28125,0 0.28125,-0.15625 0,-0.1875 -0.171875,-0.1875 -0.28125,-0.1875 H 1.03125 c -0.109375,0 -0.28125,0 -0.28125,0.171875 0,0.171875 0.15625,0.171875 0.28125,0.171875 z m 0,0"
               id="id-4ca4738e-8df1-4870-bd06-799a6273f62f"
               style="fill:#f8f8f2;stroke-width:0" />
          </g>
        </g>
      </defs>
      <g
         fill-opacity="1"
         id="id-22c2a754-edfd-42b2-8e7b-bcfaf7682546"
         transform="translate(-149.165,-129.227)"
         style="fill:#f8f8f2;stroke-width:0">
        <g
           transform="translate(148.712,134.765)"
           id="g2188"
           style="fill:#f8f8f2;stroke-width:0">
          <path
             d="m 1.859375,-2.296875 c 0.296875,0 1.03125,-0.03125 1.53125,-0.234375 0.703125,-0.296875 0.75,-0.890625 0.75,-1.03125 0,-0.4375 -0.375,-0.84375 -1.0625,-0.84375 -1.109375,0 -2.625,0.96875 -2.625,2.71875 0,1.015625 0.59375,1.796875 1.578125,1.796875 1.421875,0 2.25,-1.0625 2.25,-1.171875 0,-0.0625 -0.046875,-0.140625 -0.109375,-0.140625 -0.0625,0 -0.078125,0.03125 -0.140625,0.109375 -0.78125,0.984375 -1.875,0.984375 -1.984375,0.984375 -0.78125,0 -0.875,-0.84375 -0.875,-1.15625 0,-0.125 0.015625,-0.421875 0.15625,-1.03125 z m -0.46875,-0.21875 C 1.78125,-4.03125 2.8125,-4.1875 3.078125,-4.1875 c 0.453125,0 0.734375,0.296875 0.734375,0.625 0,1.046875 -1.59375,1.046875 -2.015625,1.046875 z m 0,0"
             id="id-bdcfcd21-6e8e-4e87-afab-9856871f7e2c"
             style="fill:#f8f8f2;stroke-width:0" />
        </g>
      </g>
      <g
         fill-opacity="1"
         id="id-1a9ca3bb-3a59-4224-84a9-e1ef186de5ba"
         transform="translate(-149.165,-129.227)"
         style="fill:#f8f8f2;stroke-width:0">
        <g
           transform="translate(153.351,131.149)"
           id="g323"
           style="fill:#f8f8f2;stroke-width:0">
          <path
             d="m 5.1875,-1.578125 c 0.109375,0 0.28125,0 0.28125,-0.15625 0,-0.1875 -0.171875,-0.1875 -0.28125,-0.1875 H 1.03125 c -0.109375,0 -0.28125,0 -0.28125,0.171875 0,0.171875 0.15625,0.171875 0.28125,0.171875 z m 0,0"
             id="id-b0bedf02-ad53-42af-8dab-2246bc91fc22"
             style="fill:#f8f8f2;stroke-width:0" />
        </g>
      </g>
    </g>
    <g
       transform="matrix(0.352778,0,0,0.352778,154.28871,79.099621)"
       ns1:version="1.9.0"
       ns1:texconverter="pdflatex"
       ns1:pdfconverter="inkscape"
       ns1:text="$\\bar\\nu_e$"
       ns1:preamble="/Users/junseo/Library/Application Support/org.inkscape.Inkscape/config/inkscape/extensions/textext/default_packages.tex"
       ns1:scale="1.0"
       ns1:alignment="middle center"
       ns1:stroke-to-path="0"
       ns1:inkscapeversion="1.3"
       id="y-5-6"
       ns1:jacobian_sqrt="0.352778"
       style="fill:#f8f8f2;stroke-width:0">
      <defs
         id="id-2c6b79fb-ff59-4b87-82cb-60ac9e4a8d0e"
         style="fill:#f8f8f2;stroke-width:0">
        <g
           id="id-0738535e-71a0-48c2-a8a7-b3c588e343cb"
           style="fill:#f8f8f2;stroke-width:0">
          <g
             id="id-358dcfd0-ea54-4486-8a06-2ee9061f6a73"
             style="fill:#f8f8f2;stroke-width:0">
            <path
               d="M 4.28125,-5.578125 V -5.875 H 0.6875 v 0.296875 z m 0,0"
               id="id-46dc2ac7-bca0-4f8f-85e4-48b905e99a2d"
               style="fill:#f8f8f2;stroke-width:0" />
          </g>
          <g
             id="id-0136f4e8-2e15-453f-ad00-0a7befb0e189"
             style="fill:#f8f8f2;stroke-width:0">
            <path
               d="m 2.234375,-4.296875 c 0,-0.015625 0,-0.109375 -0.125,-0.109375 -0.234375,0 -0.96875,0.078125 -1.21875,0.09375 -0.078125,0.015625 -0.1875,0.03125 -0.1875,0.203125 0,0.125 0.078125,0.125 0.234375,0.125 0.484375,0 0.5,0.0625 0.5,0.171875 0,0.0625 -0.125,0.53125 -0.1875,0.796875 L 0.640625,-0.5625 C 0.59375,-0.421875 0.53125,-0.140625 0.53125,-0.125 0.53125,-0.015625 0.625,0 0.6875,0 h 0.140625 c 0.703125,-0.125 1.78125,-0.515625 2.8125,-1.46875 1.3125,-1.21875 1.578125,-2.578125 1.578125,-2.671875 0,-0.171875 -0.109375,-0.265625 -0.28125,-0.265625 -0.078125,0 -0.3125,0.046875 -0.390625,0.328125 -0.640625,2.265625 -2.15625,3.375 -3.296875,3.75 z m 0,0"
               id="id-717e6b1e-92e5-4b88-a35b-210d89b27b6e"
               style="fill:#f8f8f2;stroke-width:0" />
          </g>
          <g
             id="id-3ea99b4e-5bc0-47f7-879c-84c9aade855f"
             style="fill:#f8f8f2;stroke-width:0">
            <path
               d="m 1.5625,-1.59375 c 0.1875,0 0.75,-0.015625 1.125,-0.140625 0.515625,-0.1875 0.609375,-0.515625 0.609375,-0.71875 0,-0.390625 -0.390625,-0.625 -0.859375,-0.625 -0.84375,0 -1.96875,0.640625 -1.96875,1.84375 0,0.703125 0.4375,1.296875 1.25,1.296875 1.1875,0 1.734375,-0.6875 1.734375,-0.78125 0,-0.046875 -0.0625,-0.125 -0.125,-0.125 -0.03125,0 -0.046875,0.015625 -0.109375,0.078125 C 2.671875,-0.125 1.859375,-0.125 1.734375,-0.125 1.3125,-0.125 1.03125,-0.40625 1.03125,-0.96875 c 0,-0.09375 0,-0.234375 0.09375,-0.625 z M 1.171875,-1.78125 C 1.46875,-2.796875 2.234375,-2.875 2.4375,-2.875 2.734375,-2.875 3,-2.71875 3,-2.453125 3,-1.78125 1.8125,-1.78125 1.515625,-1.78125 Z m 0,0"
               id="id-fa3e1f45-0ad9-4874-9863-9bed7c633aa2"
               style="fill:#f8f8f2;stroke-width:0" />
          </g>
        </g>
      </defs>
      <g
         fill-opacity="1"
         id="id-d0318487-4977-43ae-a65c-a22042a3dea9"
         transform="translate(-149.243,-128.89)"
         style="fill:#f8f8f2;stroke-width:0">
        <g
           transform="translate(149.276,134.765)"
           id="g6530"
           style="fill:#f8f8f2;stroke-width:0">
          <path
             d="M 4.28125,-5.578125 V -5.875 H 0.6875 v 0.296875 z m 0,0"
             id="id-4ab35d57-de09-40f4-afb4-6b993d9a3d2f"
             style="fill:#f8f8f2;stroke-width:0" />
        </g>
      </g>
      <g
         fill-opacity="1"
         id="id-e573e478-396b-4657-86f7-0f557e539252"
         transform="translate(-149.243,-128.89)"
         style="fill:#f8f8f2;stroke-width:0">
        <g
           transform="translate(148.712,134.765)"
           id="g9223"
           style="fill:#f8f8f2;stroke-width:0">
          <path
             d="m 2.234375,-4.296875 c 0,-0.015625 0,-0.109375 -0.125,-0.109375 -0.234375,0 -0.96875,0.078125 -1.21875,0.09375 -0.078125,0.015625 -0.1875,0.03125 -0.1875,0.203125 0,0.125 0.078125,0.125 0.234375,0.125 0.484375,0 0.5,0.0625 0.5,0.171875 0,0.0625 -0.125,0.53125 -0.1875,0.796875 L 0.640625,-0.5625 C 0.59375,-0.421875 0.53125,-0.140625 0.53125,-0.125 0.53125,-0.015625 0.625,0 0.6875,0 h 0.140625 c 0.703125,-0.125 1.78125,-0.515625 2.8125,-1.46875 1.3125,-1.21875 1.578125,-2.578125 1.578125,-2.671875 0,-0.171875 -0.109375,-0.265625 -0.28125,-0.265625 -0.078125,0 -0.3125,0.046875 -0.390625,0.328125 -0.640625,2.265625 -2.15625,3.375 -3.296875,3.75 z m 0,0"
             id="id-9e439a21-3ad9-4a6a-8a1f-6debf358741b"
             style="fill:#f8f8f2;stroke-width:0" />
        </g>
      </g>
      <g
         fill-opacity="1"
         id="id-830bddc0-ad11-48a0-90f2-a52f4ac535c1"
         transform="translate(-149.243,-128.89)"
         style="fill:#f8f8f2;stroke-width:0">
        <g
           transform="translate(153.634,136.259)"
           id="g6812"
           style="fill:#f8f8f2;stroke-width:0">
          <path
             d="m 1.5625,-1.59375 c 0.1875,0 0.75,-0.015625 1.125,-0.140625 0.515625,-0.1875 0.609375,-0.515625 0.609375,-0.71875 0,-0.390625 -0.390625,-0.625 -0.859375,-0.625 -0.84375,0 -1.96875,0.640625 -1.96875,1.84375 0,0.703125 0.4375,1.296875 1.25,1.296875 1.1875,0 1.734375,-0.6875 1.734375,-0.78125 0,-0.046875 -0.0625,-0.125 -0.125,-0.125 -0.03125,0 -0.046875,0.015625 -0.109375,0.078125 C 2.671875,-0.125 1.859375,-0.125 1.734375,-0.125 1.3125,-0.125 1.03125,-0.40625 1.03125,-0.96875 c 0,-0.09375 0,-0.234375 0.09375,-0.625 z M 1.171875,-1.78125 C 1.46875,-2.796875 2.234375,-2.875 2.4375,-2.875 2.734375,-2.875 3,-2.71875 3,-2.453125 3,-1.78125 1.8125,-1.78125 1.515625,-1.78125 Z m 0,0"
             id="id-d89b6340-1309-432b-a1da-681c978c774a"
             style="fill:#f8f8f2;stroke-width:0" />
        </g>
      </g>
    </g>
  </g>
  <g
     inkscape:groupmode="layer"
     id="layer2"
     inkscape:label="Layer 2"
     transform="translate(-15.4763,-47.4852)" />
</svg>
